<svg width="60" height="60" viewBox="0 0 60 60" fill="none" xmlns="http://www.w3.org/2000/svg">
<g filter="url(#filter0_i_24_38)">
<circle cx="30" cy="27" r="25" fill="#F47C2A"/>
</g>
<g filter="url(#filter1_d_24_38)">
<path d="M35.2597 42H19.4485C19.2008 42 19 41.7992 19 41.5515V12.4485C19 12.2008 19.2008 12 19.4485 12H41.2252C41.4723 12 41.6729 12.1945 41.6737 12.4416C41.7008 20.4834 41.7365 35.7147 41.6722 35.649C41.6081 35.5836 37.6683 39.678 35.583 41.8624C35.4983 41.9511 35.3823 42 35.2597 42Z" fill="#F47C2A"/>
<path d="M35.2597 42H19.4485C19.2008 42 19 41.7992 19 41.5515V12.4485C19 12.2008 19.2008 12 19.4485 12H41.2252C41.4723 12 41.6729 12.1945 41.6737 12.4416C41.7008 20.4834 41.7365 35.7147 41.6722 35.649C41.6081 35.5836 37.6683 39.678 35.583 41.8624C35.4983 41.9511 35.3823 42 35.2597 42Z" stroke="white" stroke-width="0.897026"/>
</g>
<path d="M35.4584 41.7917V35.5417L41.28 35.5653" stroke="white" stroke-width="1.12128" stroke-linecap="round" stroke-linejoin="round"/>
<path d="M32.7105 16.1797L33.8679 18.0888L37.9188 13.7138" stroke="white" stroke-width="1.12128" stroke-linecap="round"/>
<path d="M23.3928 16.6833C24.1673 16.6834 24.7951 17.3111 24.7951 18.0857C24.795 18.8602 24.1673 19.488 23.3928 19.488C22.6182 19.488 21.9905 18.8603 21.9904 18.0857C21.9904 17.3111 22.6181 16.6833 23.3928 16.6833Z" stroke="white" stroke-width="0.448513"/>
<path d="M37.3832 16.6833C38.1578 16.6834 38.7856 17.3111 38.7856 18.0857C38.7855 18.8602 38.1578 19.488 37.3832 19.488C36.6087 19.488 35.981 18.8603 35.9809 18.0857C35.9809 17.3111 36.6086 16.6833 37.3832 16.6833Z" stroke="white" stroke-width="0.448513"/>
<path d="M27.2965 17.1147C27.8325 17.1147 28.2672 17.5495 28.2672 18.0854C28.2672 18.6215 27.8326 19.0562 27.2965 19.0562C26.7605 19.0561 26.3258 18.6215 26.3258 18.0854C26.3259 17.5495 26.7606 17.1148 27.2965 17.1147Z" stroke="white" stroke-width="0.336385"/>
<path d="M33.4784 17.1147C34.0144 17.1147 34.449 17.5495 34.4491 18.0854C34.4491 18.6215 34.0144 19.0562 33.4784 19.0562C32.9424 19.0561 32.5077 18.6215 32.5077 18.0854C32.5078 17.5495 32.9424 17.1148 33.4784 17.1147Z" stroke="white" stroke-width="0.336385"/>
<path d="M30.388 17.4401C30.7443 17.4402 31.0335 17.7293 31.0335 18.0856C31.0335 18.4419 30.7443 18.7311 30.388 18.7311C30.0317 18.7311 29.7425 18.442 29.7425 18.0856C29.7425 17.7293 30.0317 17.4401 30.388 17.4401Z" stroke="white" stroke-width="0.336385"/>
<path d="M22.0911 20.6885H38.6847" stroke="white" stroke-width="0.67277" stroke-linecap="round" stroke-linejoin="round"/>
<path d="M23.3928 22.7026C24.1673 22.7027 24.7951 23.3304 24.7951 24.105C24.795 24.8795 24.1673 25.5073 23.3928 25.5073C22.6182 25.5073 21.9905 24.8795 21.9904 24.105C21.9904 23.3304 22.6181 22.7026 23.3928 22.7026Z" stroke="white" stroke-width="0.448513"/>
<path d="M37.3832 22.7026C38.1578 22.7027 38.7856 23.3304 38.7856 24.105C38.7855 24.8795 38.1578 25.5073 37.3832 25.5073C36.6087 25.5073 35.981 24.8795 35.9809 24.105C35.9809 23.3304 36.6086 22.7026 37.3832 22.7026Z" stroke="white" stroke-width="0.448513"/>
<path d="M27.2965 23.134C27.8325 23.134 28.2672 23.5687 28.2672 24.1047C28.2672 24.6408 27.8326 25.0754 27.2965 25.0754C26.7605 25.0754 26.3258 24.6407 26.3258 24.1047C26.3259 23.5688 26.7606 23.1341 27.2965 23.134Z" stroke="white" stroke-width="0.336385"/>
<path d="M33.4784 23.134C34.0144 23.134 34.449 23.5687 34.4491 24.1047C34.4491 24.6408 34.0144 25.0754 33.4784 25.0754C32.9424 25.0754 32.5077 24.6407 32.5077 24.1047C32.5078 23.5688 32.9424 23.1341 33.4784 23.134Z" stroke="white" stroke-width="0.336385"/>
<path d="M30.388 23.4594C30.7443 23.4594 31.0335 23.7486 31.0335 24.1049C31.0335 24.4612 30.7443 24.7504 30.388 24.7504C30.0317 24.7504 29.7425 24.4612 29.7425 24.1049C29.7425 23.7486 30.0317 23.4594 30.388 23.4594Z" stroke="white" stroke-width="0.336385"/>
<path d="M22.0911 26.7078H38.6847" stroke="white" stroke-width="0.67277" stroke-linecap="round" stroke-linejoin="round"/>
<path d="M23.3928 28.7219C24.1673 28.722 24.7951 29.3497 24.7951 30.1243C24.795 30.8988 24.1673 31.5265 23.3928 31.5266C22.6182 31.5266 21.9905 30.8988 21.9904 30.1243C21.9904 29.3496 22.6181 28.7219 23.3928 28.7219Z" stroke="white" stroke-width="0.448513"/>
<path d="M37.3832 28.7219C38.1578 28.722 38.7856 29.3497 38.7856 30.1243C38.7855 30.8988 38.1578 31.5265 37.3832 31.5266C36.6087 31.5266 35.981 30.8988 35.9809 30.1243C35.9809 29.3496 36.6086 28.7219 37.3832 28.7219Z" stroke="white" stroke-width="0.448513"/>
<path d="M27.2965 29.1533C27.8325 29.1533 28.2672 29.588 28.2672 30.124C28.2672 30.6601 27.8326 31.0947 27.2965 31.0947C26.7605 31.0947 26.3258 30.66 26.3258 30.124C26.3259 29.5881 26.7606 29.1534 27.2965 29.1533Z" stroke="white" stroke-width="0.336385"/>
<path d="M33.4784 29.1533C34.0144 29.1533 34.449 29.588 34.4491 30.124C34.4491 30.6601 34.0144 31.0947 33.4784 31.0947C32.9424 31.0947 32.5077 30.66 32.5077 30.124C32.5078 29.5881 32.9424 29.1534 33.4784 29.1533Z" stroke="white" stroke-width="0.336385"/>
<path d="M30.388 29.4787C30.7443 29.4787 31.0335 29.7679 31.0335 30.1242C31.0335 30.4805 30.7443 30.7697 30.388 30.7697C30.0317 30.7697 29.7425 30.4805 29.7425 30.1242C29.7425 29.7679 30.0317 29.4787 30.388 29.4787Z" stroke="white" stroke-width="0.336385"/>
<path d="M22.0911 32.7271H38.6847" stroke="white" stroke-width="0.67277" stroke-linecap="round" stroke-linejoin="round"/>
<defs>
<filter id="filter0_i_24_38" x="5" y="2" width="50" height="55" filterUnits="userSpaceOnUse" color-interpolation-filters="sRGB">
<feFlood flood-opacity="0" result="BackgroundImageFix"/>
<feBlend mode="normal" in="SourceGraphic" in2="BackgroundImageFix" result="shape"/>
<feColorMatrix in="SourceAlpha" type="matrix" values="0 0 0 0 0 0 0 0 0 0 0 0 0 0 0 0 0 0 127 0" result="hardAlpha"/>
<feOffset dy="6"/>
<feGaussianBlur stdDeviation="2.5"/>
<feComposite in2="hardAlpha" operator="arithmetic" k2="-1" k3="1"/>
<feColorMatrix type="matrix" values="0 0 0 0 0 0 0 0 0 0 0 0 0 0 0 0 0 0 0.25 0"/>
<feBlend mode="normal" in2="shape" result="effect1_innerShadow_24_38"/>
</filter>
<filter id="filter1_d_24_38" x="17.6545" y="11.5515" width="25.3994" height="32.691" filterUnits="userSpaceOnUse" color-interpolation-filters="sRGB">
<feFlood flood-opacity="0" result="BackgroundImageFix"/>
<feColorMatrix in="SourceAlpha" type="matrix" values="0 0 0 0 0 0 0 0 0 0 0 0 0 0 0 0 0 0 127 0" result="hardAlpha"/>
<feOffset dy="0.897026"/>
<feGaussianBlur stdDeviation="0.448513"/>
<feComposite in2="hardAlpha" operator="out"/>
<feColorMatrix type="matrix" values="0 0 0 0 0 0 0 0 0 0 0 0 0 0 0 0 0 0 0.25 0"/>
<feBlend mode="normal" in2="BackgroundImageFix" result="effect1_dropShadow_24_38"/>
<feBlend mode="normal" in="SourceGraphic" in2="effect1_dropShadow_24_38" result="shape"/>
</filter>
</defs>
</svg>
