<svg width="90" height="90" viewBox="0 0 90 90" fill="none" xmlns="http://www.w3.org/2000/svg">
<g clip-path="url(#clip0_23_6)">
<g filter="url(#filter0_d_23_6)">
<path d="M47.9733 66.8026C49.1069 66.4247 49.8627 67.1805 49.1069 69.4478C47.2208 75.106 50.0855 81.1622 56.0768 81.1622C58.3036 81.1622 60.0656 80.1429 60.0656 77.7612C60.0656 77.0055 60.6288 76.1071 62.7107 76.6276C64.58 77.0949 64.0649 74.9587 62.7107 73.6045C57.7743 68.6681 56.9207 62.9548 60.8213 56.5997C64.6389 49.6285 63.9712 41.4229 60.4582 34.3968C58.2355 29.9515 60.0505 25.3534 63.4665 21.9374C66.5861 18.8178 70.7639 16.9345 73.2915 13.1431C74.5414 11.2682 73.6325 7.94985 72.1578 6.34119C71.0242 5.10456 71.7799 5.20754 71.0242 3.79899C70.4833 2.79096 68.2866 2.81562 67.6232 3.31812C65.6745 4.79427 65.955 6.01404 62.7107 4.93262C58.6391 3.57542 60.5938 1.34317 55.9088 2.18446C50.171 3.21482 44.871 5.78552 43.8166 12.1124C43.5142 13.9263 43.0608 14.3797 42.305 15.1355C39.2063 17.6144 31.9546 34.6825 40.0377 34.6825C43.0608 34.6825 42.6829 35.8161 41.5492 37.3277C40.2541 39.0545 37.3925 41.8623 35.1252 44.8853C32.0466 48.3825 30.4841 49.9496 27.9454 52.0651C23.7449 55.5656 19.3124 59.5928 18.4984 65.2911C18.3294 66.474 18.3418 68.9782 18.8762 70.5814C19.632 72.8487 20.0099 73.9824 18.8762 74.7382C17.7426 75.4939 16.1923 73.9048 15.4753 72.4708C12.8069 67.1342 17.7426 63.7795 17.3647 61.1343C16.9081 57.9381 11.4607 62.4338 9.80702 66.0468C7.71188 70.6242 9.86188 76.2771 14.3416 78.517C17.2645 79.9784 17.9614 77.7612 20.3878 77.7612C21.8106 77.7612 21.5214 78.517 24.1666 80.0285C26.8118 81.5401 32.8579 82.2958 35.1252 82.2958C37.3925 82.2958 43.4387 81.9179 45.3281 81.1622C47.2175 80.4064 47.4092 79.8314 47.5954 79.2728C47.9733 78.1391 47.9733 76.6276 46.4617 75.8718C44.1944 74.7382 42.6829 75.8718 41.5493 74.3603C40.4156 72.8487 41.5493 71.7151 42.6829 70.5814C43.6463 69.618 46.8396 67.1805 47.9733 66.8026Z" fill="#F47C2A"/>
<path d="M47.9733 66.8026C49.1069 66.4247 49.8627 67.1805 49.1069 69.4478C47.2208 75.106 50.0855 81.1622 56.0768 81.1622C58.3036 81.1622 60.0656 80.1429 60.0656 77.7612C60.0656 77.0055 60.6288 76.1071 62.7107 76.6276C64.58 77.0949 64.0649 74.9587 62.7107 73.6045C57.7743 68.6681 56.9207 62.9548 60.8213 56.5997C64.6389 49.6285 63.9712 41.4229 60.4582 34.3968C58.2355 29.9515 60.0505 25.3534 63.4665 21.9374C66.5861 18.8178 70.7639 16.9345 73.2915 13.1431C74.5414 11.2682 73.6325 7.94985 72.1578 6.34119C71.0242 5.10456 71.7799 5.20754 71.0242 3.79899C70.4833 2.79096 68.2866 2.81562 67.6232 3.31812C65.6745 4.79427 65.955 6.01404 62.7107 4.93262C58.6391 3.57542 60.5938 1.34317 55.9088 2.18446C50.171 3.21482 44.871 5.78552 43.8166 12.1124C43.5142 13.9263 43.0608 14.3797 42.305 15.1355C39.2063 17.6144 31.9546 34.6825 40.0377 34.6825C43.0608 34.6825 42.6829 35.8161 41.5492 37.3277C40.2541 39.0545 37.3925 41.8623 35.1252 44.8853C32.0466 48.3825 30.4841 49.9496 27.9454 52.0651C23.7449 55.5656 19.3124 59.5928 18.4984 65.2911C18.3294 66.474 18.3418 68.9782 18.8762 70.5814C19.632 72.8487 20.0099 73.9824 18.8762 74.7382C17.7426 75.4939 16.1923 73.9048 15.4753 72.4708C12.8069 67.1342 17.7426 63.7795 17.3647 61.1343C16.9081 57.9381 11.4607 62.4338 9.80702 66.0468C7.71188 70.6242 9.86188 76.2771 14.3416 78.517C17.2645 79.9784 17.9614 77.7612 20.3878 77.7612C21.8106 77.7612 21.5214 78.517 24.1666 80.0285C26.8118 81.5401 32.8579 82.2958 35.1252 82.2958C37.3925 82.2958 43.4387 81.9179 45.3281 81.1622C47.2175 80.4064 47.4092 79.8314 47.5954 79.2728C47.9733 78.1391 47.9733 76.6276 46.4617 75.8718C44.1944 74.7382 42.6829 75.8718 41.5493 74.3603C40.4156 72.8487 41.5493 71.7151 42.6829 70.5814C43.6463 69.618 46.8396 67.1805 47.9733 66.8026Z" stroke="#F47C2A"/>
</g>
<g filter="url(#filter1_d_23_6)">
<path d="M64.978 53.5767C65.217 52.8597 64.978 39.2171 64.978 35.0604C64.978 32.9451 64.978 23.7238 64.2222 19.5671L66.1117 18.8114V39.9728C66.1117 39.9728 66.1117 52.0651 66.4895 53.5767C66.8674 55.0882 66.8674 54.3324 66.8674 55.4661C66.8674 56.5997 66.2948 56.9776 65.7338 56.9776C64.6001 56.9776 64.2222 55.8591 64.2222 55.4661C64.2222 54.3324 64.6001 54.7103 64.978 53.5767Z" fill="#F47C2A"/>
<path d="M64.978 53.5767C65.217 52.8597 64.978 39.2171 64.978 35.0604C64.978 32.9451 64.978 23.7238 64.2222 19.5671L66.1117 18.8114V39.9728C66.1117 39.9728 66.1117 52.0651 66.4895 53.5767C66.8674 55.0882 66.8674 54.3324 66.8674 55.4661C66.8674 56.5997 66.2948 56.9776 65.7338 56.9776C64.6001 56.9776 64.2222 55.8591 64.2222 55.4661C64.2222 54.3324 64.6001 54.7103 64.978 53.5767Z" stroke="#F47C2A"/>
</g>
<g filter="url(#filter2_d_23_6)">
<path d="M70.6464 22.2123C70.6464 18.5846 70.1425 17.1738 69.8906 16.9219L71.4021 14.6546C72.1517 17.2782 72.5358 18.0556 72.5358 22.2123L71.4021 38.8392L70.6464 44.8853C70.6464 46.3969 71.4621 44.4084 72.5358 46.019C72.831 46.4618 72.9137 46.3969 72.8196 47.0466C72.716 47.7623 72.2405 47.6781 71.78 47.9084C69.0642 49.2663 71.0017 52.976 72.1579 54.7103C73.4638 56.6691 82.3678 69.8256 72.1579 69.8256C69.8906 69.8256 68.3791 67.1805 68.0012 63.7795C67.8214 62.1615 68.505 48.7901 69.1348 42.2401C69.6387 37.0757 70.6464 25.84 70.6464 22.2123Z" fill="#F47C2A"/>
<path d="M70.6464 22.2123C70.6464 18.5846 70.1425 17.1738 69.8906 16.9219L71.4021 14.6546C72.1517 17.2782 72.5358 18.0556 72.5358 22.2123L71.4021 38.8392L70.6464 44.8853C70.6464 46.3969 71.4621 44.4084 72.5358 46.019C72.831 46.4618 72.9137 46.3969 72.8196 47.0466C72.716 47.7623 72.2405 47.6781 71.78 47.9084C69.0642 49.2663 71.0017 52.976 72.1579 54.7103C73.4638 56.6691 82.3678 69.8256 72.1579 69.8256C69.8906 69.8256 68.3791 67.1805 68.0012 63.7795C67.8214 62.1615 68.505 48.7901 69.1348 42.2401C69.6387 37.0757 70.6464 25.84 70.6464 22.2123Z" stroke="#F47C2A"/>
</g>
<g filter="url(#filter3_i_23_6)">
<path d="M74.2235 67.5583C78.4918 66.1356 71.4438 57.103 70.2685 55.0882C69.9776 57.7063 68.1292 69.5898 74.2235 67.5583Z" fill="white"/>
</g>
</g>
<defs>
<filter id="filter0_d_23_6" x="7.49945" y="1.50003" width="73.8813" height="89.2958" filterUnits="userSpaceOnUse" color-interpolation-filters="sRGB">
<feFlood flood-opacity="0" result="BackgroundImageFix"/>
<feColorMatrix in="SourceAlpha" type="matrix" values="0 0 0 0 0 0 0 0 0 0 0 0 0 0 0 0 0 0 127 0" result="hardAlpha"/>
<feOffset dx="3" dy="4"/>
<feGaussianBlur stdDeviation="2"/>
<feComposite in2="hardAlpha" operator="out"/>
<feColorMatrix type="matrix" values="0 0 0 0 0 0 0 0 0 0 0 0 0 0 0 0 0 0 0.25 0"/>
<feBlend mode="normal" in2="BackgroundImageFix" result="effect1_dropShadow_23_6"/>
<feBlend mode="normal" in="SourceGraphic" in2="effect1_dropShadow_23_6" result="shape"/>
</filter>
<filter id="filter1_d_23_6" x="62.6572" y="18.0728" width="11.7103" height="47.4048" filterUnits="userSpaceOnUse" color-interpolation-filters="sRGB">
<feFlood flood-opacity="0" result="BackgroundImageFix"/>
<feColorMatrix in="SourceAlpha" type="matrix" values="0 0 0 0 0 0 0 0 0 0 0 0 0 0 0 0 0 0 127 0" result="hardAlpha"/>
<feOffset dx="3" dy="4"/>
<feGaussianBlur stdDeviation="2"/>
<feComposite in2="hardAlpha" operator="out"/>
<feColorMatrix type="matrix" values="0 0 0 0 0 0 0 0 0 0 0 0 0 0 0 0 0 0 0.25 0"/>
<feBlend mode="normal" in2="BackgroundImageFix" result="effect1_dropShadow_23_6"/>
<feBlend mode="normal" in="SourceGraphic" in2="effect1_dropShadow_23_6" result="shape"/>
</filter>
<filter id="filter2_d_23_6" x="66.472" y="13.4776" width="18.028" height="64.848" filterUnits="userSpaceOnUse" color-interpolation-filters="sRGB">
<feFlood flood-opacity="0" result="BackgroundImageFix"/>
<feColorMatrix in="SourceAlpha" type="matrix" values="0 0 0 0 0 0 0 0 0 0 0 0 0 0 0 0 0 0 127 0" result="hardAlpha"/>
<feOffset dx="3" dy="4"/>
<feGaussianBlur stdDeviation="2"/>
<feComposite in2="hardAlpha" operator="out"/>
<feColorMatrix type="matrix" values="0 0 0 0 0 0 0 0 0 0 0 0 0 0 0 0 0 0 0.25 0"/>
<feBlend mode="normal" in2="BackgroundImageFix" result="effect1_dropShadow_23_6"/>
<feBlend mode="normal" in="SourceGraphic" in2="effect1_dropShadow_23_6" result="shape"/>
</filter>
<filter id="filter3_i_23_6" x="69.7797" y="55.0882" width="5.80219" height="16.7025" filterUnits="userSpaceOnUse" color-interpolation-filters="sRGB">
<feFlood flood-opacity="0" result="BackgroundImageFix"/>
<feBlend mode="normal" in="SourceGraphic" in2="BackgroundImageFix" result="shape"/>
<feColorMatrix in="SourceAlpha" type="matrix" values="0 0 0 0 0 0 0 0 0 0 0 0 0 0 0 0 0 0 127 0" result="hardAlpha"/>
<feOffset dy="4"/>
<feGaussianBlur stdDeviation="2"/>
<feComposite in2="hardAlpha" operator="arithmetic" k2="-1" k3="1"/>
<feColorMatrix type="matrix" values="0 0 0 0 0 0 0 0 0 0 0 0 0 0 0 0 0 0 0.25 0"/>
<feBlend mode="normal" in2="shape" result="effect1_innerShadow_23_6"/>
</filter>
<clipPath id="clip0_23_6">
<rect width="90" height="90" fill="white"/>
</clipPath>
</defs>
</svg>
