<svg width="144" height="116" viewBox="0 0 144 116" fill="none" xmlns="http://www.w3.org/2000/svg">
<g clip-path="url(#clip0_23_6)">
<g filter="url(#filter0_d_23_6)">
<path d="M76.0091 88.8151C77.4929 88.3206 78.482 89.3097 77.4929 92.2772C75.0243 99.6829 78.7737 107.609 86.6152 107.609C89.5297 107.609 91.8358 106.275 91.8358 103.158C91.8358 102.169 92.573 100.993 95.2979 101.674C97.7445 102.286 97.0703 99.49 95.2979 97.7176C88.837 91.2568 87.7197 83.7791 92.825 75.4614C97.8215 66.3373 96.9476 55.5976 92.3497 46.4017C89.4406 40.5836 91.8161 34.5655 96.287 30.0945C100.37 26.0115 105.838 23.5466 109.146 18.5843C110.782 16.1304 109.593 11.7873 107.662 9.68185C106.179 8.06332 107.168 8.1981 106.179 6.35456C105.471 5.03523 102.596 5.06751 101.727 5.72519C99.177 7.6572 99.544 9.25367 95.2979 7.83828C89.9689 6.06195 92.5272 3.14033 86.3954 4.24143C78.8856 5.58998 71.9489 8.95458 70.5687 17.2354C70.1731 19.6094 69.5796 20.2029 68.5904 21.192C64.5348 24.4365 55.0435 46.7756 65.6229 46.7756C69.5796 46.7756 69.085 48.2593 67.6012 50.2377C65.9061 52.4978 62.1608 56.1727 59.1933 60.1293C55.1639 64.7064 53.1189 66.7575 49.7962 69.5264C44.2984 74.1079 38.4971 79.3788 37.4317 86.8368C37.2105 88.3851 37.2268 91.6626 37.9262 93.761C38.9154 96.7285 39.41 98.2122 37.9262 99.2014C36.4425 100.191 34.4134 98.1107 33.475 96.2339C29.9825 89.2491 36.4425 84.8585 35.9479 81.3964C35.3503 77.2131 28.2207 83.0971 26.0562 87.826C23.3141 93.817 26.128 101.216 31.9912 104.147C35.8168 106.06 36.7289 103.158 39.9046 103.158C41.7668 103.158 41.3883 104.147 44.8504 106.126C48.3125 108.104 56.2258 109.093 59.1933 109.093C62.1608 109.093 70.0741 108.598 72.5471 107.609C75.02 106.62 75.2708 105.868 75.5146 105.136C76.0091 103.653 76.0091 101.674 74.0308 100.685C71.0633 99.2014 69.085 100.685 67.6012 98.7068C66.1175 96.7285 67.6012 95.2447 69.085 93.761C70.3459 92.5 74.5254 89.3097 76.0091 88.8151Z" fill="#F47C2A"/>
<path d="M76.0091 88.8151C77.4929 88.3206 78.482 89.3097 77.4929 92.2772C75.0243 99.6829 78.7737 107.609 86.6152 107.609C89.5297 107.609 91.8358 106.275 91.8358 103.158C91.8358 102.169 92.573 100.993 95.2979 101.674C97.7445 102.286 97.0703 99.49 95.2979 97.7176C88.837 91.2568 87.7197 83.7791 92.825 75.4614C97.8215 66.3373 96.9476 55.5976 92.3497 46.4017C89.4406 40.5836 91.8161 34.5655 96.287 30.0945C100.37 26.0115 105.838 23.5466 109.146 18.5843C110.782 16.1304 109.593 11.7873 107.662 9.68185C106.179 8.06332 107.168 8.1981 106.179 6.35456C105.471 5.03523 102.596 5.06751 101.727 5.72519C99.177 7.6572 99.544 9.25367 95.2979 7.83828C89.9689 6.06195 92.5272 3.14033 86.3954 4.24143C78.8856 5.58998 71.9489 8.95458 70.5687 17.2354C70.1731 19.6094 69.5796 20.2029 68.5904 21.192C64.5348 24.4365 55.0435 46.7756 65.6229 46.7756C69.5796 46.7756 69.085 48.2593 67.6012 50.2377C65.9061 52.4978 62.1608 56.1727 59.1933 60.1293C55.1639 64.7064 53.1189 66.7575 49.7962 69.5264C44.2984 74.1079 38.4971 79.3788 37.4317 86.8368C37.2105 88.3851 37.2268 91.6626 37.9262 93.761C38.9154 96.7285 39.41 98.2122 37.9262 99.2014C36.4425 100.191 34.4134 98.1107 33.475 96.2339C29.9825 89.2491 36.4425 84.8585 35.9479 81.3964C35.3503 77.2131 28.2207 83.0971 26.0562 87.826C23.3141 93.817 26.128 101.216 31.9912 104.147C35.8168 106.06 36.7289 103.158 39.9046 103.158C41.7668 103.158 41.3883 104.147 44.8504 106.126C48.3125 108.104 56.2258 109.093 59.1933 109.093C62.1608 109.093 70.0741 108.598 72.5471 107.609C75.02 106.62 75.2708 105.868 75.5146 105.136C76.0091 103.653 76.0091 101.674 74.0308 100.685C71.0633 99.2014 69.085 100.685 67.6012 98.7068C66.1175 96.7285 67.6012 95.2447 69.085 93.761C70.3459 92.5 74.5254 89.3097 76.0091 88.8151Z" stroke="#F47C2A"/>
</g>
<g filter="url(#filter1_d_23_6)">
<path d="M98.2654 71.5047C98.5781 70.5663 98.2654 52.7106 98.2654 47.2702C98.2654 44.5016 98.2654 32.4327 97.2762 26.9922L99.7491 26.0031V53.6997C99.7491 53.6997 99.7491 69.5264 100.244 71.5047C100.738 73.4831 100.738 72.4939 100.738 73.9776C100.738 75.4614 99.9889 75.956 99.2545 75.956C97.7708 75.956 97.2762 74.492 97.2762 73.9776C97.2762 72.4939 97.7708 72.9885 98.2654 71.5047Z" fill="#F47C2A"/>
<path d="M98.2654 71.5047C98.5781 70.5663 98.2654 52.7106 98.2654 47.2702C98.2654 44.5016 98.2654 32.4327 97.2762 26.9922L99.7491 26.0031V53.6997C99.7491 53.6997 99.7491 69.5264 100.244 71.5047C100.738 73.4831 100.738 72.4939 100.738 73.9776C100.738 75.4614 99.9889 75.956 99.2545 75.956C97.7708 75.956 97.2762 74.492 97.2762 73.9776C97.2762 72.4939 97.7708 72.9885 98.2654 71.5047Z" stroke="#F47C2A"/>
</g>
<g filter="url(#filter2_d_23_6)">
<path d="M105.684 30.4543C105.684 25.7063 105.025 23.8599 104.695 23.5302L106.673 20.5627C107.654 23.9965 108.157 25.0139 108.157 30.4543L106.673 52.216L105.684 60.1293C105.684 62.1077 106.752 59.5051 108.157 61.6131C108.544 62.1927 108.652 62.1077 108.529 62.9581C108.393 63.8948 107.771 63.7846 107.168 64.086C103.613 65.8632 106.149 70.7187 107.663 72.9885C109.372 75.5523 121.025 92.7718 107.663 92.7718C104.695 92.7718 102.717 89.3097 102.222 84.8585C101.987 82.7408 102.882 65.24 103.706 56.6672C104.365 49.9079 105.684 35.2023 105.684 30.4543Z" fill="#F47C2A"/>
<path d="M105.684 30.4543C105.684 25.7063 105.025 23.8599 104.695 23.5302L106.673 20.5627C107.654 23.9965 108.157 25.0139 108.157 30.4543L106.673 52.216L105.684 60.1293C105.684 62.1077 106.752 59.5051 108.157 61.6131C108.544 62.1927 108.652 62.1077 108.529 62.9581C108.393 63.8948 107.771 63.7846 107.168 64.086C103.613 65.8632 106.149 70.7187 107.663 72.9885C109.372 75.5523 121.025 92.7718 107.663 92.7718C104.695 92.7718 102.717 89.3097 102.222 84.8585C101.987 82.7408 102.882 65.24 103.706 56.6672C104.365 49.9079 105.684 35.2023 105.684 30.4543Z" stroke="#F47C2A"/>
</g>
<g filter="url(#filter3_i_23_6)">
<path d="M110.366 89.8043C115.952 87.9421 106.728 76.1201 105.19 73.483C104.809 76.9096 102.39 92.463 110.366 89.8043Z" fill="white"/>
</g>
<mask id="path-5-outside-1_23_6" maskUnits="userSpaceOnUse" x="3" y="63" width="137" height="23" fill="black">
<rect fill="white" x="3" y="63" width="137" height="23"/>
<path d="M4.0768 64.084H10.7208C11.3368 64.084 11.9748 64.1573 12.6348 64.304C13.2948 64.4507 13.8961 64.722 14.4388 65.118C14.9961 65.4993 15.4508 66.0273 15.8028 66.702C16.1548 67.3767 16.3235 68.242 16.3088 69.298L16.2868 74.6C16.2868 75.568 16.0961 76.404 15.7148 77.108C15.3481 77.7973 14.8788 78.362 14.3068 78.802C13.7348 79.242 13.0968 79.5647 12.3928 79.77C11.7035 79.99 11.0215 80.1 10.3468 80.1H4.0768V64.084ZM13.5148 70.112C13.5148 69.1147 13.2655 68.3887 12.7668 67.934C12.2828 67.4647 11.4321 67.23 10.2148 67.23H7.6188V76.624H10.4128C10.8088 76.624 11.1901 76.5873 11.5568 76.514C11.9381 76.426 12.2681 76.2867 12.5468 76.096C12.8401 75.9053 13.0748 75.6487 13.2508 75.326C13.4268 75.0033 13.5148 74.5927 13.5148 74.094V70.112ZM18.6556 67.648V65.052H21.3176V67.648H18.6556ZM18.6556 80.1V69.65H21.3176V80.1H18.6556ZM31.369 80.1V74.226C31.369 74.006 31.325 73.786 31.237 73.566C31.1637 73.346 31.0537 73.1553 30.907 72.994C30.7603 72.8327 30.5917 72.7007 30.401 72.598C30.225 72.4953 30.0417 72.444 29.851 72.444H28.355C28.1937 72.444 28.025 72.4807 27.849 72.554C27.6877 72.6273 27.5337 72.73 27.387 72.862C27.2403 72.994 27.1157 73.148 27.013 73.324C26.925 73.5 26.881 73.6833 26.881 73.874V80.1H23.647V69.386H26.881V70.266C27.0863 70.1487 27.3283 70.0533 27.607 69.98C27.8857 69.892 28.1497 69.848 28.399 69.848H30.005C30.5037 69.848 30.973 69.936 31.413 70.112C31.853 70.288 32.2343 70.5373 32.557 70.86C32.8797 71.1827 33.1363 71.586 33.327 72.07C33.5177 72.5393 33.613 73.0673 33.613 73.654V80.1H31.369ZM43.8721 69.606V81.09C43.8721 81.662 43.7547 82.1387 43.5201 82.52C43.3001 82.9013 43.0214 83.2093 42.6841 83.444C42.3614 83.6933 42.0021 83.8693 41.6061 83.972C41.2247 84.0747 40.8801 84.126 40.5721 84.126H38.3061C37.9981 84.126 37.6754 84.0673 37.3381 83.95C37.0007 83.8327 36.6927 83.6493 36.4141 83.4C36.1501 83.1507 35.9227 82.8353 35.7321 82.454C35.5561 82.0727 35.4681 81.6253 35.4681 81.112H37.9981C38.0127 81.2587 38.0347 81.4053 38.0641 81.552C38.0934 81.6987 38.1447 81.8307 38.2181 81.948C38.3061 82.0653 38.4161 82.1607 38.5481 82.234C38.6801 82.3073 38.8487 82.344 39.0541 82.344H40.0001C40.3374 82.344 40.6087 82.234 40.8141 82.014C41.0341 81.8087 41.1441 81.5813 41.1441 81.332V79.418C41.0121 79.5647 40.7994 79.6747 40.5061 79.748C40.2127 79.836 39.9707 79.88 39.7801 79.88H38.1081C37.6827 79.88 37.2867 79.814 36.9201 79.682C36.5681 79.55 36.2527 79.3593 35.9741 79.11C35.6954 78.8753 35.4754 78.5893 35.3141 78.252C35.1674 77.9147 35.0941 77.5407 35.0941 77.13V73.434C35.0941 73.0087 35.1747 72.6127 35.3361 72.246C35.5121 71.8647 35.7394 71.542 36.0181 71.278C36.3114 70.9993 36.6487 70.7793 37.0301 70.618C37.4114 70.4567 37.8221 70.376 38.2621 70.376H39.6261C40.1247 70.376 40.6307 70.508 41.1441 70.772V69.606H43.8721ZM39.6921 78.208C40.0294 78.208 40.3301 78.1053 40.5941 77.9C40.8581 77.6947 40.9901 77.3133 40.9901 76.756V73.61C40.9901 73.1407 40.8214 72.8033 40.4841 72.598C40.1614 72.378 39.8241 72.268 39.4721 72.268H39.0101C38.5701 72.268 38.2181 72.4 37.9541 72.664C37.6901 72.9133 37.5581 73.2727 37.5581 73.742V76.866C37.5581 77.174 37.6534 77.4747 37.8441 77.768C38.0347 78.0613 38.3501 78.208 38.7901 78.208H39.6921ZM45.5202 64.084H52.1642C52.7802 64.084 53.4182 64.1573 54.0782 64.304C54.7382 64.4507 55.3395 64.722 55.8822 65.118C56.4395 65.4993 56.8942 66.0273 57.2462 66.702C57.5982 67.3767 57.7668 68.242 57.7522 69.298L57.7302 74.6C57.7302 75.568 57.5395 76.404 57.1582 77.108C56.7915 77.7973 56.3222 78.362 55.7502 78.802C55.1782 79.242 54.5402 79.5647 53.8362 79.77C53.1468 79.99 52.4648 80.1 51.7902 80.1H45.5202V64.084ZM54.9582 70.112C54.9582 69.1147 54.7088 68.3887 54.2102 67.934C53.7262 67.4647 52.8755 67.23 51.6582 67.23H49.0622V76.624H51.8562C52.2522 76.624 52.6335 76.5873 53.0002 76.514C53.3815 76.426 53.7115 76.2867 53.9902 76.096C54.2835 75.9053 54.5182 75.6487 54.6942 75.326C54.8702 75.0033 54.9582 74.5927 54.9582 74.094V70.112ZM62.8489 80.1C62.3796 80.1 61.9249 80.034 61.4849 79.902C61.0596 79.77 60.6856 79.5647 60.3629 79.286C60.0403 79.022 59.7836 78.6847 59.5929 78.274C59.4023 77.8487 59.3069 77.35 59.3069 76.778V72.862C59.3069 72.4073 59.4096 71.982 59.6149 71.586C59.8349 71.19 60.1209 70.8453 60.4729 70.552C60.8396 70.2587 61.2649 70.0313 61.7489 69.87C62.2329 69.7087 62.7463 69.628 63.2889 69.628H64.6529C65.2689 69.628 65.8263 69.716 66.3249 69.892C66.8383 70.068 67.2783 70.3027 67.6449 70.596C68.0116 70.8893 68.2903 71.2413 68.4809 71.652C68.6863 72.0627 68.7889 72.4953 68.7889 72.95V76.998C68.7889 77.4527 68.7083 77.8707 68.5469 78.252C68.3856 78.6333 68.1509 78.956 67.8429 79.22C67.5349 79.4987 67.1683 79.7113 66.7429 79.858C66.3176 80.0193 65.8409 80.1 65.3129 80.1H62.8489ZM64.5429 78.098C64.7923 78.098 65.0049 78.054 65.1809 77.966C65.3716 77.8633 65.5256 77.746 65.6429 77.614C65.7749 77.4673 65.8703 77.3133 65.9289 77.152C65.9876 76.976 66.0169 76.8073 66.0169 76.646V73.522C66.0169 73.17 65.8703 72.8327 65.5769 72.51C65.2983 72.1727 64.9023 72.004 64.3889 72.004H63.7729C63.5676 72.004 63.3623 72.0333 63.1569 72.092C62.9663 72.1507 62.7829 72.246 62.6069 72.378C62.4456 72.4953 62.3136 72.6493 62.2109 72.84C62.1083 73.0307 62.0569 73.2653 62.0569 73.544V76.536C62.0569 76.6533 62.0716 76.8073 62.1009 76.998C62.1449 77.174 62.2183 77.3427 62.3209 77.504C62.4383 77.6653 62.5923 77.8047 62.7829 77.922C62.9883 78.0393 63.2449 78.098 63.5529 78.098H64.5429ZM78.0546 80.1V74.226C78.0546 74.006 78.0106 73.786 77.9226 73.566C77.8492 73.346 77.7392 73.1553 77.5926 72.994C77.4459 72.8327 77.2772 72.7007 77.0866 72.598C76.9106 72.4953 76.7272 72.444 76.5366 72.444H75.0406C74.8792 72.444 74.7106 72.4807 74.5346 72.554C74.3732 72.6273 74.2192 72.73 74.0726 72.862C73.9259 72.994 73.8012 73.148 73.6986 73.324C73.6106 73.5 73.5666 73.6833 73.5666 73.874V80.1H70.3326V69.386H73.5666V70.266C73.7719 70.1487 74.0139 70.0533 74.2926 69.98C74.5712 69.892 74.8352 69.848 75.0846 69.848H76.6906C77.1892 69.848 77.6586 69.936 78.0986 70.112C78.5386 70.288 78.9199 70.5373 79.2426 70.86C79.5652 71.1827 79.8219 71.586 80.0126 72.07C80.2032 72.5393 80.2986 73.0673 80.2986 73.654V80.1H78.0546ZM90.5576 69.606V81.09C90.5576 81.662 90.4403 82.1387 90.2056 82.52C89.9856 82.9013 89.7069 83.2093 89.3696 83.444C89.0469 83.6933 88.6876 83.8693 88.2916 83.972C87.9103 84.0747 87.5656 84.126 87.2576 84.126H84.9916C84.6836 84.126 84.3609 84.0673 84.0236 83.95C83.6863 83.8327 83.3783 83.6493 83.0996 83.4C82.8356 83.1507 82.6083 82.8353 82.4176 82.454C82.2416 82.0727 82.1536 81.6253 82.1536 81.112H84.6836C84.6983 81.2587 84.7203 81.4053 84.7496 81.552C84.7789 81.6987 84.8303 81.8307 84.9036 81.948C84.9916 82.0653 85.1016 82.1607 85.2336 82.234C85.3656 82.3073 85.5343 82.344 85.7396 82.344H86.6856C87.0229 82.344 87.2943 82.234 87.4996 82.014C87.7196 81.8087 87.8296 81.5813 87.8296 81.332V79.418C87.6976 79.5647 87.4849 79.6747 87.1916 79.748C86.8983 79.836 86.6563 79.88 86.4656 79.88H84.7936C84.3683 79.88 83.9723 79.814 83.6056 79.682C83.2536 79.55 82.9383 79.3593 82.6596 79.11C82.3809 78.8753 82.1609 78.5893 81.9996 78.252C81.8529 77.9147 81.7796 77.5407 81.7796 77.13V73.434C81.7796 73.0087 81.8603 72.6127 82.0216 72.246C82.1976 71.8647 82.4249 71.542 82.7036 71.278C82.9969 70.9993 83.3343 70.7793 83.7156 70.618C84.0969 70.4567 84.5076 70.376 84.9476 70.376H86.3116C86.8103 70.376 87.3163 70.508 87.8296 70.772V69.606H90.5576ZM86.3776 78.208C86.7149 78.208 87.0156 78.1053 87.2796 77.9C87.5436 77.6947 87.6756 77.3133 87.6756 76.756V73.61C87.6756 73.1407 87.5069 72.8033 87.1696 72.598C86.8469 72.378 86.5096 72.268 86.1576 72.268H85.6956C85.2556 72.268 84.9036 72.4 84.6396 72.664C84.3756 72.9133 84.2436 73.2727 84.2436 73.742V76.866C84.2436 77.174 84.3389 77.4747 84.5296 77.768C84.7203 78.0613 85.0356 78.208 85.4756 78.208H86.3776ZM92.2057 64.084H98.8497C99.4657 64.084 100.104 64.1573 100.764 64.304C101.424 64.4507 102.025 64.722 102.568 65.118C103.125 65.4993 103.58 66.0273 103.932 66.702C104.284 67.3767 104.452 68.242 104.438 69.298L104.416 74.6C104.416 75.568 104.225 76.404 103.844 77.108C103.477 77.7973 103.008 78.362 102.436 78.802C101.864 79.242 101.226 79.5647 100.522 79.77C99.8324 79.99 99.1504 80.1 98.4757 80.1H92.2057V64.084ZM101.644 70.112C101.644 69.1147 101.394 68.3887 100.896 67.934C100.412 67.4647 99.561 67.23 98.3437 67.23H95.7477V76.624H98.5417C98.9377 76.624 99.319 76.5873 99.6857 76.514C100.067 76.426 100.397 76.2867 100.676 76.096C100.969 75.9053 101.204 75.6487 101.38 75.326C101.556 75.0033 101.644 74.5927 101.644 74.094V70.112ZM114.198 80.1H110.942C110.458 80.1 109.93 80.0267 109.358 79.88C108.801 79.7333 108.28 79.484 107.796 79.132C107.312 78.7947 106.909 78.3473 106.586 77.79C106.278 77.2327 106.124 76.5433 106.124 75.722V68.836C106.124 68.1173 106.264 67.4647 106.542 66.878C106.821 66.2913 107.195 65.7927 107.664 65.382C108.148 64.9567 108.706 64.634 109.336 64.414C109.967 64.1793 110.634 64.062 111.338 64.062H113.582C114.301 64.062 114.968 64.1793 115.584 64.414C116.2 64.634 116.728 64.9567 117.168 65.382C117.623 65.7927 117.975 66.2913 118.224 66.878C118.474 67.45 118.598 68.0953 118.598 68.814V75.788C118.598 76.4333 118.459 77.0273 118.18 77.57C117.916 78.098 117.564 78.5527 117.124 78.934C116.699 79.3007 116.222 79.5867 115.694 79.792C115.181 79.9973 114.682 80.1 114.198 80.1ZM113.01 77.46C113.714 77.46 114.279 77.2767 114.704 76.91C115.13 76.5287 115.342 75.986 115.342 75.282V69.056C115.342 68.7773 115.291 68.5133 115.188 68.264C115.1 68.0147 114.961 67.7947 114.77 67.604C114.58 67.4133 114.338 67.2667 114.044 67.164C113.766 67.0467 113.428 66.988 113.032 66.988H111.8C111.404 66.988 111.052 67.0467 110.744 67.164C110.451 67.2813 110.202 67.4353 109.996 67.626C109.791 67.8167 109.637 68.0367 109.534 68.286C109.432 68.5353 109.38 68.7993 109.38 69.078V75.282C109.38 75.8833 109.549 76.3967 109.886 76.822C110.224 77.2473 110.803 77.46 111.624 77.46H113.01ZM132.69 71.586V75.15C132.69 76.734 132.353 77.9367 131.678 78.758C131.004 79.5647 129.977 80.0267 128.598 80.144C128.07 80.2027 127.535 80.2247 126.992 80.21C126.464 80.1953 125.863 80.1733 125.188 80.144C124.587 80.1293 123.993 80.0193 123.406 79.814C122.82 79.6233 122.292 79.33 121.822 78.934C121.368 78.538 120.994 78.0393 120.7 77.438C120.407 76.822 120.26 76.0813 120.26 75.216V69.122C120.26 68.418 120.385 67.758 120.634 67.142C120.884 66.526 121.243 65.998 121.712 65.558C122.196 65.1033 122.776 64.744 123.45 64.48C124.125 64.216 124.895 64.084 125.76 64.084H127.322C128.041 64.084 128.679 64.172 129.236 64.348C129.808 64.524 130.307 64.7733 130.732 65.096C131.158 65.4187 131.51 65.8 131.788 66.24C132.082 66.6653 132.316 67.142 132.492 67.67L129.368 68.616C129.28 68.4253 129.185 68.242 129.082 68.066C128.98 67.89 128.848 67.7433 128.686 67.626C128.54 67.494 128.356 67.3913 128.136 67.318C127.931 67.2447 127.667 67.208 127.344 67.208H126.002C125.21 67.208 124.609 67.4207 124.198 67.846C123.802 68.2713 123.604 68.7773 123.604 69.364V74.886C123.604 75.722 123.795 76.3527 124.176 76.778C124.558 77.1887 125.1 77.394 125.804 77.394H127.3C127.814 77.394 128.217 77.3207 128.51 77.174C128.818 77.0273 129.046 76.822 129.192 76.558C129.354 76.294 129.456 75.986 129.5 75.634C129.544 75.2673 129.566 74.8713 129.566 74.446L129.544 73.456H126.948V71.586H132.69ZM135.505 64.062H138.783V76.338H135.505V64.062ZM138.651 78.318V80.98H135.681V78.318H138.651Z"/>
</mask>
<path d="M4.0768 64.084H10.7208C11.3368 64.084 11.9748 64.1573 12.6348 64.304C13.2948 64.4507 13.8961 64.722 14.4388 65.118C14.9961 65.4993 15.4508 66.0273 15.8028 66.702C16.1548 67.3767 16.3235 68.242 16.3088 69.298L16.2868 74.6C16.2868 75.568 16.0961 76.404 15.7148 77.108C15.3481 77.7973 14.8788 78.362 14.3068 78.802C13.7348 79.242 13.0968 79.5647 12.3928 79.77C11.7035 79.99 11.0215 80.1 10.3468 80.1H4.0768V64.084ZM13.5148 70.112C13.5148 69.1147 13.2655 68.3887 12.7668 67.934C12.2828 67.4647 11.4321 67.23 10.2148 67.23H7.6188V76.624H10.4128C10.8088 76.624 11.1901 76.5873 11.5568 76.514C11.9381 76.426 12.2681 76.2867 12.5468 76.096C12.8401 75.9053 13.0748 75.6487 13.2508 75.326C13.4268 75.0033 13.5148 74.5927 13.5148 74.094V70.112ZM18.6556 67.648V65.052H21.3176V67.648H18.6556ZM18.6556 80.1V69.65H21.3176V80.1H18.6556ZM31.369 80.1V74.226C31.369 74.006 31.325 73.786 31.237 73.566C31.1637 73.346 31.0537 73.1553 30.907 72.994C30.7603 72.8327 30.5917 72.7007 30.401 72.598C30.225 72.4953 30.0417 72.444 29.851 72.444H28.355C28.1937 72.444 28.025 72.4807 27.849 72.554C27.6877 72.6273 27.5337 72.73 27.387 72.862C27.2403 72.994 27.1157 73.148 27.013 73.324C26.925 73.5 26.881 73.6833 26.881 73.874V80.1H23.647V69.386H26.881V70.266C27.0863 70.1487 27.3283 70.0533 27.607 69.98C27.8857 69.892 28.1497 69.848 28.399 69.848H30.005C30.5037 69.848 30.973 69.936 31.413 70.112C31.853 70.288 32.2343 70.5373 32.557 70.86C32.8797 71.1827 33.1363 71.586 33.327 72.07C33.5177 72.5393 33.613 73.0673 33.613 73.654V80.1H31.369ZM43.8721 69.606V81.09C43.8721 81.662 43.7547 82.1387 43.5201 82.52C43.3001 82.9013 43.0214 83.2093 42.6841 83.444C42.3614 83.6933 42.0021 83.8693 41.6061 83.972C41.2247 84.0747 40.8801 84.126 40.5721 84.126H38.3061C37.9981 84.126 37.6754 84.0673 37.3381 83.95C37.0007 83.8327 36.6927 83.6493 36.4141 83.4C36.1501 83.1507 35.9227 82.8353 35.7321 82.454C35.5561 82.0727 35.4681 81.6253 35.4681 81.112H37.9981C38.0127 81.2587 38.0347 81.4053 38.0641 81.552C38.0934 81.6987 38.1447 81.8307 38.2181 81.948C38.3061 82.0653 38.4161 82.1607 38.5481 82.234C38.6801 82.3073 38.8487 82.344 39.0541 82.344H40.0001C40.3374 82.344 40.6087 82.234 40.8141 82.014C41.0341 81.8087 41.1441 81.5813 41.1441 81.332V79.418C41.0121 79.5647 40.7994 79.6747 40.5061 79.748C40.2127 79.836 39.9707 79.88 39.7801 79.88H38.1081C37.6827 79.88 37.2867 79.814 36.9201 79.682C36.5681 79.55 36.2527 79.3593 35.9741 79.11C35.6954 78.8753 35.4754 78.5893 35.3141 78.252C35.1674 77.9147 35.0941 77.5407 35.0941 77.13V73.434C35.0941 73.0087 35.1747 72.6127 35.3361 72.246C35.5121 71.8647 35.7394 71.542 36.0181 71.278C36.3114 70.9993 36.6487 70.7793 37.0301 70.618C37.4114 70.4567 37.8221 70.376 38.2621 70.376H39.6261C40.1247 70.376 40.6307 70.508 41.1441 70.772V69.606H43.8721ZM39.6921 78.208C40.0294 78.208 40.3301 78.1053 40.5941 77.9C40.8581 77.6947 40.9901 77.3133 40.9901 76.756V73.61C40.9901 73.1407 40.8214 72.8033 40.4841 72.598C40.1614 72.378 39.8241 72.268 39.4721 72.268H39.0101C38.5701 72.268 38.2181 72.4 37.9541 72.664C37.6901 72.9133 37.5581 73.2727 37.5581 73.742V76.866C37.5581 77.174 37.6534 77.4747 37.8441 77.768C38.0347 78.0613 38.3501 78.208 38.7901 78.208H39.6921ZM45.5202 64.084H52.1642C52.7802 64.084 53.4182 64.1573 54.0782 64.304C54.7382 64.4507 55.3395 64.722 55.8822 65.118C56.4395 65.4993 56.8942 66.0273 57.2462 66.702C57.5982 67.3767 57.7668 68.242 57.7522 69.298L57.7302 74.6C57.7302 75.568 57.5395 76.404 57.1582 77.108C56.7915 77.7973 56.3222 78.362 55.7502 78.802C55.1782 79.242 54.5402 79.5647 53.8362 79.77C53.1468 79.99 52.4648 80.1 51.7902 80.1H45.5202V64.084ZM54.9582 70.112C54.9582 69.1147 54.7088 68.3887 54.2102 67.934C53.7262 67.4647 52.8755 67.23 51.6582 67.23H49.0622V76.624H51.8562C52.2522 76.624 52.6335 76.5873 53.0002 76.514C53.3815 76.426 53.7115 76.2867 53.9902 76.096C54.2835 75.9053 54.5182 75.6487 54.6942 75.326C54.8702 75.0033 54.9582 74.5927 54.9582 74.094V70.112ZM62.8489 80.1C62.3796 80.1 61.9249 80.034 61.4849 79.902C61.0596 79.77 60.6856 79.5647 60.3629 79.286C60.0403 79.022 59.7836 78.6847 59.5929 78.274C59.4023 77.8487 59.3069 77.35 59.3069 76.778V72.862C59.3069 72.4073 59.4096 71.982 59.6149 71.586C59.8349 71.19 60.1209 70.8453 60.4729 70.552C60.8396 70.2587 61.2649 70.0313 61.7489 69.87C62.2329 69.7087 62.7463 69.628 63.2889 69.628H64.6529C65.2689 69.628 65.8263 69.716 66.3249 69.892C66.8383 70.068 67.2783 70.3027 67.6449 70.596C68.0116 70.8893 68.2903 71.2413 68.4809 71.652C68.6863 72.0627 68.7889 72.4953 68.7889 72.95V76.998C68.7889 77.4527 68.7083 77.8707 68.5469 78.252C68.3856 78.6333 68.1509 78.956 67.8429 79.22C67.5349 79.4987 67.1683 79.7113 66.7429 79.858C66.3176 80.0193 65.8409 80.1 65.3129 80.1H62.8489ZM64.5429 78.098C64.7923 78.098 65.0049 78.054 65.1809 77.966C65.3716 77.8633 65.5256 77.746 65.6429 77.614C65.7749 77.4673 65.8703 77.3133 65.9289 77.152C65.9876 76.976 66.0169 76.8073 66.0169 76.646V73.522C66.0169 73.17 65.8703 72.8327 65.5769 72.51C65.2983 72.1727 64.9023 72.004 64.3889 72.004H63.7729C63.5676 72.004 63.3623 72.0333 63.1569 72.092C62.9663 72.1507 62.7829 72.246 62.6069 72.378C62.4456 72.4953 62.3136 72.6493 62.2109 72.84C62.1083 73.0307 62.0569 73.2653 62.0569 73.544V76.536C62.0569 76.6533 62.0716 76.8073 62.1009 76.998C62.1449 77.174 62.2183 77.3427 62.3209 77.504C62.4383 77.6653 62.5923 77.8047 62.7829 77.922C62.9883 78.0393 63.2449 78.098 63.5529 78.098H64.5429ZM78.0546 80.1V74.226C78.0546 74.006 78.0106 73.786 77.9226 73.566C77.8492 73.346 77.7392 73.1553 77.5926 72.994C77.4459 72.8327 77.2772 72.7007 77.0866 72.598C76.9106 72.4953 76.7272 72.444 76.5366 72.444H75.0406C74.8792 72.444 74.7106 72.4807 74.5346 72.554C74.3732 72.6273 74.2192 72.73 74.0726 72.862C73.9259 72.994 73.8012 73.148 73.6986 73.324C73.6106 73.5 73.5666 73.6833 73.5666 73.874V80.1H70.3326V69.386H73.5666V70.266C73.7719 70.1487 74.0139 70.0533 74.2926 69.98C74.5712 69.892 74.8352 69.848 75.0846 69.848H76.6906C77.1892 69.848 77.6586 69.936 78.0986 70.112C78.5386 70.288 78.9199 70.5373 79.2426 70.86C79.5652 71.1827 79.8219 71.586 80.0126 72.07C80.2032 72.5393 80.2986 73.0673 80.2986 73.654V80.1H78.0546ZM90.5576 69.606V81.09C90.5576 81.662 90.4403 82.1387 90.2056 82.52C89.9856 82.9013 89.7069 83.2093 89.3696 83.444C89.0469 83.6933 88.6876 83.8693 88.2916 83.972C87.9103 84.0747 87.5656 84.126 87.2576 84.126H84.9916C84.6836 84.126 84.3609 84.0673 84.0236 83.95C83.6863 83.8327 83.3783 83.6493 83.0996 83.4C82.8356 83.1507 82.6083 82.8353 82.4176 82.454C82.2416 82.0727 82.1536 81.6253 82.1536 81.112H84.6836C84.6983 81.2587 84.7203 81.4053 84.7496 81.552C84.7789 81.6987 84.8303 81.8307 84.9036 81.948C84.9916 82.0653 85.1016 82.1607 85.2336 82.234C85.3656 82.3073 85.5343 82.344 85.7396 82.344H86.6856C87.0229 82.344 87.2943 82.234 87.4996 82.014C87.7196 81.8087 87.8296 81.5813 87.8296 81.332V79.418C87.6976 79.5647 87.4849 79.6747 87.1916 79.748C86.8983 79.836 86.6563 79.88 86.4656 79.88H84.7936C84.3683 79.88 83.9723 79.814 83.6056 79.682C83.2536 79.55 82.9383 79.3593 82.6596 79.11C82.3809 78.8753 82.1609 78.5893 81.9996 78.252C81.8529 77.9147 81.7796 77.5407 81.7796 77.13V73.434C81.7796 73.0087 81.8603 72.6127 82.0216 72.246C82.1976 71.8647 82.4249 71.542 82.7036 71.278C82.9969 70.9993 83.3343 70.7793 83.7156 70.618C84.0969 70.4567 84.5076 70.376 84.9476 70.376H86.3116C86.8103 70.376 87.3163 70.508 87.8296 70.772V69.606H90.5576ZM86.3776 78.208C86.7149 78.208 87.0156 78.1053 87.2796 77.9C87.5436 77.6947 87.6756 77.3133 87.6756 76.756V73.61C87.6756 73.1407 87.5069 72.8033 87.1696 72.598C86.8469 72.378 86.5096 72.268 86.1576 72.268H85.6956C85.2556 72.268 84.9036 72.4 84.6396 72.664C84.3756 72.9133 84.2436 73.2727 84.2436 73.742V76.866C84.2436 77.174 84.3389 77.4747 84.5296 77.768C84.7203 78.0613 85.0356 78.208 85.4756 78.208H86.3776ZM92.2057 64.084H98.8497C99.4657 64.084 100.104 64.1573 100.764 64.304C101.424 64.4507 102.025 64.722 102.568 65.118C103.125 65.4993 103.58 66.0273 103.932 66.702C104.284 67.3767 104.452 68.242 104.438 69.298L104.416 74.6C104.416 75.568 104.225 76.404 103.844 77.108C103.477 77.7973 103.008 78.362 102.436 78.802C101.864 79.242 101.226 79.5647 100.522 79.77C99.8324 79.99 99.1504 80.1 98.4757 80.1H92.2057V64.084ZM101.644 70.112C101.644 69.1147 101.394 68.3887 100.896 67.934C100.412 67.4647 99.561 67.23 98.3437 67.23H95.7477V76.624H98.5417C98.9377 76.624 99.319 76.5873 99.6857 76.514C100.067 76.426 100.397 76.2867 100.676 76.096C100.969 75.9053 101.204 75.6487 101.38 75.326C101.556 75.0033 101.644 74.5927 101.644 74.094V70.112ZM114.198 80.1H110.942C110.458 80.1 109.93 80.0267 109.358 79.88C108.801 79.7333 108.28 79.484 107.796 79.132C107.312 78.7947 106.909 78.3473 106.586 77.79C106.278 77.2327 106.124 76.5433 106.124 75.722V68.836C106.124 68.1173 106.264 67.4647 106.542 66.878C106.821 66.2913 107.195 65.7927 107.664 65.382C108.148 64.9567 108.706 64.634 109.336 64.414C109.967 64.1793 110.634 64.062 111.338 64.062H113.582C114.301 64.062 114.968 64.1793 115.584 64.414C116.2 64.634 116.728 64.9567 117.168 65.382C117.623 65.7927 117.975 66.2913 118.224 66.878C118.474 67.45 118.598 68.0953 118.598 68.814V75.788C118.598 76.4333 118.459 77.0273 118.18 77.57C117.916 78.098 117.564 78.5527 117.124 78.934C116.699 79.3007 116.222 79.5867 115.694 79.792C115.181 79.9973 114.682 80.1 114.198 80.1ZM113.01 77.46C113.714 77.46 114.279 77.2767 114.704 76.91C115.13 76.5287 115.342 75.986 115.342 75.282V69.056C115.342 68.7773 115.291 68.5133 115.188 68.264C115.1 68.0147 114.961 67.7947 114.77 67.604C114.58 67.4133 114.338 67.2667 114.044 67.164C113.766 67.0467 113.428 66.988 113.032 66.988H111.8C111.404 66.988 111.052 67.0467 110.744 67.164C110.451 67.2813 110.202 67.4353 109.996 67.626C109.791 67.8167 109.637 68.0367 109.534 68.286C109.432 68.5353 109.38 68.7993 109.38 69.078V75.282C109.38 75.8833 109.549 76.3967 109.886 76.822C110.224 77.2473 110.803 77.46 111.624 77.46H113.01ZM132.69 71.586V75.15C132.69 76.734 132.353 77.9367 131.678 78.758C131.004 79.5647 129.977 80.0267 128.598 80.144C128.07 80.2027 127.535 80.2247 126.992 80.21C126.464 80.1953 125.863 80.1733 125.188 80.144C124.587 80.1293 123.993 80.0193 123.406 79.814C122.82 79.6233 122.292 79.33 121.822 78.934C121.368 78.538 120.994 78.0393 120.7 77.438C120.407 76.822 120.26 76.0813 120.26 75.216V69.122C120.26 68.418 120.385 67.758 120.634 67.142C120.884 66.526 121.243 65.998 121.712 65.558C122.196 65.1033 122.776 64.744 123.45 64.48C124.125 64.216 124.895 64.084 125.76 64.084H127.322C128.041 64.084 128.679 64.172 129.236 64.348C129.808 64.524 130.307 64.7733 130.732 65.096C131.158 65.4187 131.51 65.8 131.788 66.24C132.082 66.6653 132.316 67.142 132.492 67.67L129.368 68.616C129.28 68.4253 129.185 68.242 129.082 68.066C128.98 67.89 128.848 67.7433 128.686 67.626C128.54 67.494 128.356 67.3913 128.136 67.318C127.931 67.2447 127.667 67.208 127.344 67.208H126.002C125.21 67.208 124.609 67.4207 124.198 67.846C123.802 68.2713 123.604 68.7773 123.604 69.364V74.886C123.604 75.722 123.795 76.3527 124.176 76.778C124.558 77.1887 125.1 77.394 125.804 77.394H127.3C127.814 77.394 128.217 77.3207 128.51 77.174C128.818 77.0273 129.046 76.822 129.192 76.558C129.354 76.294 129.456 75.986 129.5 75.634C129.544 75.2673 129.566 74.8713 129.566 74.446L129.544 73.456H126.948V71.586H132.69ZM135.505 64.062H138.783V76.338H135.505V64.062ZM138.651 78.318V80.98H135.681V78.318H138.651Z" fill="white"/>
<path d="M4.07681 64.084V63.084H3.07681V64.084H4.07681ZM12.6348 64.304L12.4179 65.2802V65.2802L12.6348 64.304ZM14.4388 65.118L13.8493 65.9258L13.8616 65.9347L13.8741 65.9433L14.4388 65.118ZM15.8028 66.702L14.9162 67.1646V67.1646L15.8028 66.702ZM16.3088 69.298L15.3089 69.2841L15.3088 69.2938L16.3088 69.298ZM16.2868 74.6L15.2868 74.5958V74.6H16.2868ZM15.7148 77.108L14.8355 76.6317L14.8319 76.6384L15.7148 77.108ZM14.3068 78.802L14.9165 79.5946V79.5946L14.3068 78.802ZM12.3928 79.77L12.1128 78.81L12.1007 78.8135L12.0888 78.8173L12.3928 79.77ZM4.07681 80.1H3.07681V81.1H4.07681V80.1ZM12.7668 67.934L12.0707 68.6519L12.0817 68.6626L12.0931 68.673L12.7668 67.934ZM7.6188 67.23V66.23H6.6188V67.23H7.6188ZM7.6188 76.624H6.6188V77.624H7.6188V76.624ZM11.5568 76.514L11.7529 77.4946L11.7673 77.4917L11.7817 77.4884L11.5568 76.514ZM12.5468 76.096L12.0018 75.2576L11.9919 75.264L11.9821 75.2707L12.5468 76.096ZM13.2508 75.326L14.1287 75.8049V75.8049L13.2508 75.326ZM4.07681 64.084V65.084H10.7208V64.084V63.084H4.07681V64.084ZM10.7208 64.084V65.084C11.2572 65.084 11.8223 65.1478 12.4179 65.2802L12.6348 64.304L12.8517 63.3278C12.1273 63.1668 11.4165 63.084 10.7208 63.084V64.084ZM12.6348 64.304L12.4179 65.2802C12.9443 65.3972 13.4187 65.6115 13.8493 65.9258L14.4388 65.118L15.0283 64.3102C14.3736 63.8325 13.6453 63.5042 12.8517 63.3278L12.6348 64.304ZM14.4388 65.118L13.8741 65.9433C14.2796 66.2207 14.6304 66.6167 14.9162 67.1646L15.8028 66.702L16.6894 66.2394C16.2712 65.438 15.7127 64.7779 15.0035 64.2927L14.4388 65.118ZM15.8028 66.702L14.9162 67.1646C15.1676 67.6463 15.3221 68.3329 15.3089 69.2841L16.3088 69.298L17.3087 69.3119C17.3248 68.1511 17.142 67.107 16.6894 66.2394L15.8028 66.702ZM16.3088 69.298L15.3088 69.2938L15.2868 74.5958L16.2868 74.6L17.2868 74.6041L17.3088 69.3021L16.3088 69.298ZM16.2868 74.6H15.2868C15.2868 75.4362 15.1227 76.1016 14.8355 76.6317L15.7148 77.108L16.5941 77.5843C17.0696 76.7064 17.2868 75.6998 17.2868 74.6H16.2868ZM15.7148 77.108L14.8319 76.6384C14.5267 77.2123 14.147 77.6633 13.6971 78.0094L14.3068 78.802L14.9165 79.5946C15.6106 79.0607 16.1696 78.3824 16.5977 77.5776L15.7148 77.108ZM14.3068 78.802L13.6971 78.0094C13.2253 78.3723 12.6994 78.6389 12.1128 78.81L12.3928 79.77L12.6728 80.73C13.4942 80.4904 14.2444 80.1117 14.9165 79.5946L14.3068 78.802ZM12.3928 79.77L12.0888 78.8173C11.4906 79.0082 10.9111 79.1 10.3468 79.1V80.1V81.1C11.1319 81.1 11.9163 80.9718 12.6968 80.7227L12.3928 79.77ZM10.3468 80.1V79.1H4.07681V80.1V81.1H10.3468V80.1ZM4.07681 80.1H5.07681V64.084H4.07681H3.07681V80.1H4.07681ZM13.5148 70.112H14.5148C14.5148 68.969 14.2296 67.9145 13.4406 67.195L12.7668 67.934L12.0931 68.673C12.3013 68.8628 12.5148 69.2603 12.5148 70.112H13.5148ZM12.7668 67.934L13.463 67.2161C12.6901 66.4667 11.502 66.23 10.2148 66.23V67.23V68.23C11.3623 68.23 11.8755 68.4627 12.0707 68.6519L12.7668 67.934ZM10.2148 67.23V66.23H7.6188V67.23V68.23H10.2148V67.23ZM7.6188 67.23H6.6188V76.624H7.6188H8.6188V67.23H7.6188ZM7.6188 76.624V77.624H10.4128V76.624V75.624H7.6188V76.624ZM10.4128 76.624V77.624C10.8708 77.624 11.318 77.5816 11.7529 77.4946L11.5568 76.514L11.3607 75.5334C11.0623 75.5931 10.7468 75.624 10.4128 75.624V76.624ZM11.5568 76.514L11.7817 77.4884C12.2655 77.3767 12.7148 77.1927 13.1115 76.9213L12.5468 76.096L11.9821 75.2707C11.8214 75.3806 11.6108 75.4753 11.3319 75.5396L11.5568 76.514ZM12.5468 76.096L13.0918 76.9344C13.5313 76.6488 13.8774 76.2655 14.1287 75.8049L13.2508 75.326L12.3729 74.8471C12.2722 75.0318 12.149 75.1619 12.0018 75.2576L12.5468 76.096ZM13.2508 75.326L14.1287 75.8049C14.4083 75.2922 14.5148 74.7029 14.5148 74.094H13.5148H12.5148C12.5148 74.4824 12.4453 74.7144 12.3729 74.8471L13.2508 75.326ZM13.5148 74.094H14.5148V70.112H13.5148H12.5148V74.094H13.5148ZM18.6556 67.648H17.6556V68.648H18.6556V67.648ZM18.6556 65.052V64.052H17.6556V65.052H18.6556ZM21.3176 65.052H22.3176V64.052H21.3176V65.052ZM21.3176 67.648V68.648H22.3176V67.648H21.3176ZM18.6556 80.1H17.6556V81.1H18.6556V80.1ZM18.6556 69.65V68.65H17.6556V69.65H18.6556ZM21.3176 69.65H22.3176V68.65H21.3176V69.65ZM21.3176 80.1V81.1H22.3176V80.1H21.3176ZM18.6556 67.648H19.6556V65.052H18.6556H17.6556V67.648H18.6556ZM18.6556 65.052V66.052H21.3176V65.052V64.052H18.6556V65.052ZM21.3176 65.052H20.3176V67.648H21.3176H22.3176V65.052H21.3176ZM21.3176 67.648V66.648H18.6556V67.648V68.648H21.3176V67.648ZM18.6556 80.1H19.6556V69.65H18.6556H17.6556V80.1H18.6556ZM18.6556 69.65V70.65H21.3176V69.65V68.65H18.6556V69.65ZM21.3176 69.65H20.3176V80.1H21.3176H22.3176V69.65H21.3176ZM21.3176 80.1V79.1H18.6556V80.1V81.1H21.3176V80.1ZM31.369 80.1H30.369V81.1H31.369V80.1ZM31.237 73.566L30.2883 73.8822L30.2976 73.9101L30.3085 73.9374L31.237 73.566ZM30.907 72.994L30.1671 73.6667V73.6667L30.907 72.994ZM30.401 72.598L29.8971 73.4618L29.9119 73.4704L29.9269 73.4785L30.401 72.598ZM27.849 72.554L27.4644 71.6309L27.4497 71.637L27.4352 71.6436L27.849 72.554ZM27.387 72.862L28.056 73.6053V73.6053L27.387 72.862ZM27.013 73.324L26.1492 72.8201L26.133 72.848L26.1186 72.8768L27.013 73.324ZM26.881 80.1V81.1H27.881V80.1H26.881ZM23.647 80.1H22.647V81.1H23.647V80.1ZM23.647 69.386V68.386H22.647V69.386H23.647ZM26.881 69.386H27.881V68.386H26.881V69.386ZM26.881 70.266H25.881V71.9892L27.3771 71.1342L26.881 70.266ZM27.607 69.98L27.8615 70.9471L27.885 70.9409L27.9081 70.9336L27.607 69.98ZM32.557 70.86L31.8499 71.5671L32.557 70.86ZM33.327 72.07L32.3965 72.4365L32.4005 72.4464L33.327 72.07ZM33.613 80.1V81.1H34.613V80.1H33.613ZM31.369 80.1H32.369V74.226H31.369H30.369V80.1H31.369ZM31.369 74.226H32.369C32.369 73.8693 32.2971 73.5236 32.1655 73.1946L31.237 73.566L30.3085 73.9374C30.353 74.0484 30.369 74.1427 30.369 74.226H31.369ZM31.237 73.566L32.1857 73.2498C32.0712 72.9063 31.8931 72.5921 31.6469 72.3213L30.907 72.994L30.1671 73.6667C30.2142 73.7186 30.2562 73.7857 30.2883 73.8822L31.237 73.566ZM30.907 72.994L31.6469 72.3213C31.4246 72.0768 31.1662 71.8743 30.8751 71.7175L30.401 72.598L29.9269 73.4785C30.0171 73.5271 30.0961 73.5886 30.1671 73.6667L30.907 72.994ZM30.401 72.598L30.9049 71.7342C30.5868 71.5487 30.2309 71.444 29.851 71.444V72.444V73.444C29.8524 73.444 29.8632 73.442 29.8971 73.4618L30.401 72.598ZM29.851 72.444V71.444H28.355V72.444V73.444H29.851V72.444ZM28.355 72.444V71.444C28.0399 71.444 27.7405 71.5159 27.4644 71.6309L27.849 72.554L28.2336 73.4771C28.3095 73.4454 28.3474 73.444 28.355 73.444V72.444ZM27.849 72.554L27.4352 71.6436C27.1709 71.7638 26.9322 71.926 26.718 72.1187L27.387 72.862L28.056 73.6053C28.1352 73.534 28.2045 73.4909 28.2628 73.4644L27.849 72.554ZM27.387 72.862L26.718 72.1187C26.4919 72.3222 26.3023 72.5577 26.1492 72.8201L27.013 73.324L27.8768 73.8279C27.929 73.7383 27.9887 73.6658 28.056 73.6053L27.387 72.862ZM27.013 73.324L26.1186 72.8768C25.9635 73.187 25.881 73.523 25.881 73.874H26.881H27.881C27.881 73.8436 27.8866 73.813 27.9074 73.7712L27.013 73.324ZM26.881 73.874H25.881V80.1H26.881H27.881V73.874H26.881ZM26.881 80.1V79.1H23.647V80.1V81.1H26.881V80.1ZM23.647 80.1H24.647V69.386H23.647H22.647V80.1H23.647ZM23.647 69.386V70.386H26.881V69.386V68.386H23.647V69.386ZM26.881 69.386H25.881V70.266H26.881H27.881V69.386H26.881ZM26.881 70.266L27.3771 71.1342C27.4922 71.0685 27.6497 71.0028 27.8615 70.9471L27.607 69.98L27.3525 69.0129C27.007 69.1038 26.6805 69.2288 26.3849 69.3978L26.881 70.266ZM27.607 69.98L27.9081 70.9336C28.1057 70.8712 28.2677 70.848 28.399 70.848V69.848V68.848C28.0317 68.848 27.6656 68.9128 27.3059 69.0264L27.607 69.98ZM28.399 69.848V70.848H30.005V69.848V68.848H28.399V69.848ZM30.005 69.848V70.848C30.3832 70.848 30.7258 70.9142 31.0416 71.0405L31.413 70.112L31.7844 69.1835C31.2202 68.9578 30.6241 68.848 30.005 68.848V69.848ZM31.413 70.112L31.0416 71.0405C31.3608 71.1682 31.6267 71.3439 31.8499 71.5671L32.557 70.86L33.2641 70.1529C32.842 69.7308 32.3452 69.4078 31.7844 69.1835L31.413 70.112ZM32.557 70.86L31.8499 71.5671C32.0629 71.7801 32.2492 72.0624 32.3966 72.4365L33.327 72.07L34.2574 71.7035C34.0235 71.1096 33.6965 70.5852 33.2641 70.1529L32.557 70.86ZM33.327 72.07L32.4005 72.4464C32.5356 72.7788 32.613 73.1762 32.613 73.654H33.613H34.613C34.613 72.9585 34.4998 72.2998 34.2535 71.6936L33.327 72.07ZM33.613 73.654H32.613V80.1H33.613H34.613V73.654H33.613ZM33.613 80.1V79.1H31.369V80.1V81.1H33.613V80.1ZM43.8721 69.606H44.8721V68.606H43.8721V69.606ZM43.5201 82.52L42.6684 81.9959L42.661 82.008L42.6539 82.0203L43.5201 82.52ZM42.6841 83.444L42.113 82.6231L42.0924 82.6374L42.0726 82.6527L42.6841 83.444ZM41.6061 83.972L41.3551 83.004L41.3461 83.0064L41.6061 83.972ZM37.3381 83.95L37.6666 83.0055V83.0055L37.3381 83.95ZM36.4141 83.4L35.7274 84.127L35.7372 84.1363L35.7473 84.1452L36.4141 83.4ZM35.7321 82.454L34.8241 82.8731L34.8306 82.8872L34.8376 82.9012L35.7321 82.454ZM35.4681 81.112V80.112H34.4681V81.112H35.4681ZM37.9981 81.112L38.9931 81.0125L38.903 80.112H37.9981V81.112ZM38.2181 81.948L37.3701 82.478L37.3926 82.514L37.4181 82.548L38.2181 81.948ZM38.5481 82.234L39.0337 81.3598V81.3598L38.5481 82.234ZM40.8141 82.014L40.1317 81.2829L40.1065 81.3065L40.083 81.3317L40.8141 82.014ZM41.1441 79.418H42.1441V76.812L40.4008 78.749L41.1441 79.418ZM40.5061 79.748L40.2635 78.7779L40.241 78.7835L40.2187 78.7902L40.5061 79.748ZM36.9201 79.682L36.5689 80.6184L36.5813 80.6229L36.9201 79.682ZM35.9741 79.11L36.6409 78.3648L36.6297 78.3548L36.6182 78.3451L35.9741 79.11ZM35.3141 78.252L34.397 78.6507L34.4042 78.6672L34.4119 78.6835L35.3141 78.252ZM35.3361 72.246L34.4281 71.8269L34.4243 71.8351L34.4207 71.8433L35.3361 72.246ZM36.0181 71.278L36.7058 72.004L36.7068 72.003L36.0181 71.278ZM37.0301 70.618L36.6404 69.697L37.0301 70.618ZM41.1441 70.772L40.6867 71.6613L42.1441 72.4108V70.772H41.1441ZM41.1441 69.606V68.606H40.1441V69.606H41.1441ZM40.5941 77.9L41.208 78.6894V78.6894L40.5941 77.9ZM40.4841 72.598L39.9207 73.4242L39.9421 73.4388L39.9641 73.4522L40.4841 72.598ZM37.9541 72.664L38.6407 73.391L38.6511 73.3812L38.6612 73.3711L37.9541 72.664ZM37.8441 77.768L38.6825 77.223V77.223L37.8441 77.768ZM43.8721 69.606H42.8721V81.09H43.8721H44.8721V69.606H43.8721ZM43.8721 81.09H42.8721C42.8721 81.5276 42.7826 81.8104 42.6684 81.9959L43.5201 82.52L44.3717 83.0441C44.7269 82.467 44.8721 81.7964 44.8721 81.09H43.8721ZM43.5201 82.52L42.6539 82.0203C42.5021 82.2834 42.321 82.4784 42.113 82.6231L42.6841 83.444L43.2551 84.2649C43.7217 83.9403 44.098 83.5193 44.3862 83.0197L43.5201 82.52ZM42.6841 83.444L42.0726 82.6527C41.8573 82.8191 41.6207 82.9352 41.3551 83.004L41.6061 83.972L41.857 84.94C42.3835 84.8035 42.8655 84.5676 43.2955 84.2353L42.6841 83.444ZM41.6061 83.972L41.3461 83.0064C41.027 83.0923 40.7716 83.126 40.5721 83.126V84.126V85.126C40.9885 85.126 41.4225 85.057 41.866 84.9376L41.6061 83.972ZM40.5721 84.126V83.126H38.3061V84.126V85.126H40.5721V84.126ZM38.3061 84.126V83.126C38.1262 83.126 37.9148 83.0918 37.6666 83.0055L37.3381 83.95L37.0095 84.8945C37.436 85.0428 37.87 85.126 38.3061 85.126V84.126ZM37.3381 83.95L37.6666 83.0055C37.4599 82.9336 37.2657 82.8202 37.0808 82.6548L36.4141 83.4L35.7473 84.1452C36.1197 84.4785 36.5416 84.7317 37.0095 84.8945L37.3381 83.95ZM36.4141 83.4L37.1007 82.673C36.9352 82.5167 36.7737 82.3013 36.6265 82.0068L35.7321 82.454L34.8376 82.9012C35.0717 83.3694 35.3649 83.7847 35.7274 84.127L36.4141 83.4ZM35.7321 82.454L36.64 82.0349C36.5366 81.8109 36.4681 81.5121 36.4681 81.112H35.4681H34.4681C34.4681 81.7386 34.5755 82.3345 34.8241 82.8731L35.7321 82.454ZM35.4681 81.112V82.112H37.9981V81.112V80.112H35.4681V81.112ZM37.9981 81.112L37.003 81.2115C37.021 81.3911 37.0478 81.57 37.0835 81.7481L38.0641 81.552L39.0446 81.3559C39.0216 81.2407 39.0045 81.1263 38.9931 81.0125L37.9981 81.112ZM38.0641 81.552L37.0835 81.7481C37.1346 82.0035 37.2277 82.2503 37.3701 82.478L38.2181 81.948L39.0661 81.418C39.0617 81.4111 39.0522 81.3938 39.0446 81.3559L38.0641 81.552ZM38.2181 81.948L37.4181 82.548C37.5929 82.7812 37.8112 82.9686 38.0624 83.1082L38.5481 82.234L39.0337 81.3598C39.0209 81.3527 39.0192 81.3495 39.0181 81.348L38.2181 81.948ZM38.5481 82.234L38.0624 83.1082C38.3869 83.2884 38.7373 83.344 39.0541 83.344V82.344V81.344C39.0098 81.344 38.9889 81.34 38.986 81.3393C38.9839 81.3389 39.0029 81.3428 39.0337 81.3598L38.5481 82.234ZM39.0541 82.344V83.344H40.0001V82.344V81.344H39.0541V82.344ZM40.0001 82.344V83.344C40.5775 83.344 41.1268 83.1445 41.5451 82.6963L40.8141 82.014L40.083 81.3317C40.0786 81.3364 40.0771 81.3372 40.0785 81.3362C40.08 81.3352 40.0812 81.3346 40.0808 81.3348C40.0803 81.335 40.075 81.3371 40.0628 81.3393C40.0505 81.3416 40.0301 81.344 40.0001 81.344V82.344ZM40.8141 82.014L41.4964 82.7451C41.8737 82.3929 42.1441 81.9149 42.1441 81.332H41.1441H40.1441C40.1441 81.3201 40.1454 81.3056 40.149 81.29C40.1526 81.2745 40.1574 81.2622 40.1614 81.2539C40.1694 81.2375 40.1684 81.2487 40.1317 81.2829L40.8141 82.014ZM41.1441 81.332H42.1441V79.418H41.1441H40.1441V81.332H41.1441ZM41.1441 79.418L40.4008 78.749C40.4306 78.7159 40.4476 78.7112 40.4261 78.7223C40.4039 78.7338 40.3536 78.7553 40.2635 78.7779L40.5061 79.748L40.7486 80.7181C41.1393 80.6205 41.5686 80.4411 41.8873 80.087L41.1441 79.418ZM40.5061 79.748L40.2187 78.7902C39.9694 78.865 39.8328 78.88 39.7801 78.88V79.88V80.88C40.1087 80.88 40.456 80.807 40.7934 80.7058L40.5061 79.748ZM39.7801 79.88V78.88H38.1081V79.88V80.88H39.7801V79.88ZM38.1081 79.88V78.88C37.7876 78.88 37.5073 78.8306 37.2588 78.7411L36.9201 79.682L36.5813 80.6229C37.0662 80.7974 37.5778 80.88 38.1081 80.88V79.88ZM36.9201 79.682L37.2712 78.7457C37.0347 78.657 36.8265 78.5309 36.6409 78.3648L35.9741 79.11L35.3073 79.8552C35.6789 80.1878 36.1014 80.443 36.5689 80.6183L36.9201 79.682ZM35.9741 79.11L36.6182 78.3451C36.4512 78.2044 36.3179 78.0331 36.2162 77.8205L35.3141 78.252L34.4119 78.6835C34.6329 79.1455 34.9396 79.5462 35.3299 79.8749L35.9741 79.11ZM35.3141 78.252L36.2311 77.8533C36.1452 77.6556 36.0941 77.4195 36.0941 77.13H35.0941H34.0941C34.0941 77.6618 34.1896 78.1737 34.397 78.6507L35.3141 78.252ZM35.0941 77.13H36.0941V73.434H35.0941H34.0941V77.13H35.0941ZM35.0941 73.434H36.0941C36.0941 73.1386 36.1493 72.8807 36.2514 72.6487L35.3361 72.246L34.4207 71.8433C34.2002 72.3446 34.0941 72.8787 34.0941 73.434H35.0941ZM35.3361 72.246L36.244 72.6651C36.3718 72.3882 36.5277 72.1727 36.7058 72.004L36.0181 71.278L35.3303 70.552C34.9511 70.9113 34.6523 71.3411 34.4281 71.8269L35.3361 72.246ZM36.0181 71.278L36.7068 72.003C36.911 71.809 37.1464 71.6546 37.4197 71.539L37.0301 70.618L36.6404 69.697C36.1511 69.9041 35.7118 70.1896 35.3293 70.553L36.0181 71.278ZM37.0301 70.618L37.4197 71.539C37.6701 71.433 37.9474 71.376 38.2621 71.376V70.376V69.376C37.6967 69.376 37.1526 69.4803 36.6404 69.697L37.0301 70.618ZM38.2621 70.376V71.376H39.6261V70.376V69.376H38.2621V70.376ZM39.6261 70.376V71.376C39.9423 71.376 40.2925 71.4585 40.6867 71.6613L41.1441 70.772L41.6014 69.8827C40.9689 69.5574 40.3072 69.376 39.6261 69.376V70.376ZM41.1441 70.772H42.1441V69.606H41.1441H40.1441V70.772H41.1441ZM41.1441 69.606V70.606H43.8721V69.606V68.606H41.1441V69.606ZM39.6921 78.208V79.208C40.2497 79.208 40.7668 79.0325 41.208 78.6894L40.5941 77.9L39.9801 77.1106C39.8933 77.1782 39.8091 77.208 39.6921 77.208V78.208ZM40.5941 77.9L41.208 78.6894C41.84 78.1978 41.9901 77.4194 41.9901 76.756H40.9901H39.9901C39.9901 76.9626 39.9647 77.0791 39.9461 77.1329C39.9302 77.1789 39.9303 77.1494 39.9801 77.1106L40.5941 77.9ZM40.9901 76.756H41.9901V73.61H40.9901H39.9901V76.756H40.9901ZM40.9901 73.61H41.9901C41.9901 72.8688 41.6999 72.1674 41.004 71.7438L40.4841 72.598L39.9641 73.4522C39.9754 73.4591 39.977 73.4618 39.974 73.4587C39.9709 73.4553 39.9691 73.4521 39.9691 73.4522C39.9691 73.4522 39.9901 73.4935 39.9901 73.61H40.9901ZM40.4841 72.598L41.0474 71.7718C40.5776 71.4515 40.0468 71.268 39.4721 71.268V72.268V73.268C39.6013 73.268 39.7452 73.3045 39.9207 73.4242L40.4841 72.598ZM39.4721 72.268V71.268H39.0101V72.268V73.268H39.4721V72.268ZM39.0101 72.268V71.268C38.3558 71.268 37.7317 71.4722 37.2469 71.9569L37.9541 72.664L38.6612 73.3711C38.7044 73.3278 38.7843 73.268 39.0101 73.268V72.268ZM37.9541 72.664L37.2674 71.937C36.7491 72.4265 36.5581 73.0823 36.5581 73.742H37.5581H38.5581C38.5581 73.463 38.631 73.4002 38.6407 73.391L37.9541 72.664ZM37.5581 73.742H36.5581V76.866H37.5581H38.5581V73.742H37.5581ZM37.5581 76.866H36.5581C36.5581 77.3929 36.7243 77.8801 37.0056 78.313L37.8441 77.768L38.6825 77.223C38.5825 77.0692 38.5581 76.9551 38.5581 76.866H37.5581ZM37.8441 77.768L37.0056 78.313C37.4289 78.9643 38.1107 79.208 38.7901 79.208V78.208V77.208C38.6783 77.208 38.6407 77.1891 38.6453 77.1913C38.6482 77.1926 38.6566 77.1972 38.6666 77.2059C38.6766 77.2146 38.6817 77.2217 38.6825 77.223L37.8441 77.768ZM38.7901 78.208V79.208H39.6921V78.208V77.208H38.7901V78.208ZM45.5202 64.084V63.084H44.5202V64.084H45.5202ZM54.0782 64.304L53.8612 65.2802V65.2802L54.0782 64.304ZM55.8822 65.118L55.2927 65.9258L55.305 65.9347L55.3175 65.9433L55.8822 65.118ZM57.2462 66.702L56.3596 67.1646V67.1646L57.2462 66.702ZM57.7522 69.298L56.7522 69.2841L56.7522 69.2938L57.7522 69.298ZM57.7302 74.6L56.7302 74.5958V74.6H57.7302ZM57.1582 77.108L56.2788 76.6317L56.2753 76.6384L57.1582 77.108ZM55.7502 78.802L56.3599 79.5946V79.5946L55.7502 78.802ZM53.8362 79.77L53.5562 78.81L53.5441 78.8135L53.5321 78.8173L53.8362 79.77ZM45.5202 80.1H44.5202V81.1H45.5202V80.1ZM54.2102 67.934L53.514 68.6519L53.5251 68.6626L53.5364 68.673L54.2102 67.934ZM49.0622 67.23V66.23H48.0622V67.23H49.0622ZM49.0622 76.624H48.0622V77.624H49.0622V76.624ZM53.0002 76.514L53.1963 77.4946L53.2107 77.4917L53.225 77.4884L53.0002 76.514ZM53.9902 76.096L53.4452 75.2576L53.4352 75.264L53.4255 75.2707L53.9902 76.096ZM54.6942 75.326L55.5721 75.8049V75.8049L54.6942 75.326ZM45.5202 64.084V65.084H52.1642V64.084V63.084H45.5202V64.084ZM52.1642 64.084V65.084C52.7005 65.084 53.2656 65.1478 53.8612 65.2802L54.0782 64.304L54.2951 63.3278C53.5707 63.1668 52.8598 63.084 52.1642 63.084V64.084ZM54.0782 64.304L53.8612 65.2802C54.3877 65.3972 54.862 65.6115 55.2927 65.9258L55.8822 65.118L56.4716 64.3102C55.817 63.8325 55.0887 63.5042 54.2951 63.3278L54.0782 64.304ZM55.8822 65.118L55.3175 65.9433C55.723 66.2207 56.0737 66.6167 56.3596 67.1646L57.2462 66.702L58.1328 66.2394C57.7146 65.438 57.156 64.7779 56.4468 64.2927L55.8822 65.118ZM57.2462 66.702L56.3596 67.1646C56.6109 67.6463 56.7655 68.3329 56.7523 69.2841L57.7522 69.298L58.7521 69.3119C58.7682 68.1511 58.5854 67.107 58.1328 66.2394L57.2462 66.702ZM57.7522 69.298L56.7522 69.2938L56.7302 74.5958L57.7302 74.6L58.7302 74.6041L58.7522 69.3021L57.7522 69.298ZM57.7302 74.6H56.7302C56.7302 75.4362 56.566 76.1016 56.2789 76.6317L57.1582 77.108L58.0375 77.5843C58.513 76.7064 58.7302 75.6998 58.7302 74.6H57.7302ZM57.1582 77.108L56.2753 76.6384C55.97 77.2123 55.5904 77.6633 55.1405 78.0094L55.7502 78.802L56.3599 79.5946C57.0539 79.0607 57.613 78.3824 58.041 77.5776L57.1582 77.108ZM55.7502 78.802L55.1405 78.0094C54.6686 78.3723 54.1428 78.6389 53.5562 78.81L53.8362 79.77L54.1162 80.73C54.9375 80.4904 55.6877 80.1117 56.3599 79.5946L55.7502 78.802ZM53.8362 79.77L53.5321 78.8173C52.934 79.0082 52.3544 79.1 51.7902 79.1V80.1V81.1C52.5752 81.1 53.3597 80.9718 54.1402 80.7227L53.8362 79.77ZM51.7902 80.1V79.1H45.5202V80.1V81.1H51.7902V80.1ZM45.5202 80.1H46.5202V64.084H45.5202H44.5202V80.1H45.5202ZM54.9582 70.112H55.9582C55.9582 68.969 55.673 67.9145 54.8839 67.195L54.2102 67.934L53.5364 68.673C53.7447 68.8628 53.9582 69.2603 53.9582 70.112H54.9582ZM54.2102 67.934L54.9063 67.2161C54.1334 66.4667 52.9453 66.23 51.6582 66.23V67.23V68.23C52.8057 68.23 53.3189 68.4627 53.514 68.6519L54.2102 67.934ZM51.6582 67.23V66.23H49.0622V67.23V68.23H51.6582V67.23ZM49.0622 67.23H48.0622V76.624H49.0622H50.0622V67.23H49.0622ZM49.0622 76.624V77.624H51.8562V76.624V75.624H49.0622V76.624ZM51.8562 76.624V77.624C52.3142 77.624 52.7614 77.5816 53.1963 77.4946L53.0002 76.514L52.804 75.5334C52.5056 75.5931 52.1902 75.624 51.8562 75.624V76.624ZM53.0002 76.514L53.225 77.4884C53.7089 77.3767 54.1582 77.1927 54.5548 76.9213L53.9902 76.096L53.4255 75.2707C53.2648 75.3806 53.0541 75.4753 52.7753 75.5396L53.0002 76.514ZM53.9902 76.096L54.5352 76.9344C54.9747 76.6488 55.3208 76.2655 55.5721 75.8049L54.6942 75.326L53.8163 74.8471C53.7155 75.0318 53.5923 75.1619 53.4452 75.2576L53.9902 76.096ZM54.6942 75.326L55.5721 75.8049C55.8517 75.2922 55.9582 74.7029 55.9582 74.094H54.9582H53.9582C53.9582 74.4824 53.8887 74.7144 53.8163 74.8471L54.6942 75.326ZM54.9582 74.094H55.9582V70.112H54.9582H53.9582V74.094H54.9582ZM61.4849 79.902L61.1885 80.8571L61.1976 80.8598L61.4849 79.902ZM60.3629 79.286L61.0166 78.5292L61.0065 78.5205L60.9962 78.512L60.3629 79.286ZM59.5929 78.274L58.6804 78.6831L58.6859 78.6951L59.5929 78.274ZM59.6149 71.586L58.7408 71.1004L58.7338 71.1129L58.7272 71.1257L59.6149 71.586ZM60.4729 70.552L59.8483 69.7711L59.8404 69.7774L59.8328 69.7838L60.4729 70.552ZM61.7489 69.87L61.4327 68.9213V68.9213L61.7489 69.87ZM66.3249 69.892L65.9921 70.835L66.0006 70.8379L66.3249 69.892ZM67.6449 70.596L68.2696 69.8151V69.8151L67.6449 70.596ZM68.4809 71.652L67.5739 72.0731L67.58 72.0863L67.5865 72.0992L68.4809 71.652ZM68.5469 78.252L69.4679 78.6416V78.6416L68.5469 78.252ZM67.8429 79.22L67.1922 78.4607L67.182 78.4695L67.172 78.4785L67.8429 79.22ZM66.7429 79.858L66.417 78.9126L66.4025 78.9176L66.3883 78.923L66.7429 79.858ZM65.1809 77.966L65.6282 78.8604L65.6417 78.8537L65.655 78.8465L65.1809 77.966ZM65.6429 77.614L64.8996 76.945L64.8955 76.9496L65.6429 77.614ZM65.9289 77.152L66.8687 77.4937L66.8734 77.481L66.8776 77.4682L65.9289 77.152ZM65.5769 72.51L64.806 73.1469L64.8211 73.1651L64.837 73.1827L65.5769 72.51ZM63.1569 72.092L62.8822 71.1305L62.8725 71.1333L62.8629 71.1362L63.1569 72.092ZM62.6069 72.378L63.1951 73.1867L63.2011 73.1824L63.2069 73.178L62.6069 72.378ZM62.2109 72.84L63.0914 73.3141V73.3141L62.2109 72.84ZM62.1009 76.998L61.1126 77.1501L61.1196 77.1957L61.1308 77.2405L62.1009 76.998ZM62.3209 77.504L61.4773 78.0409L61.4939 78.0671L61.5122 78.0922L62.3209 77.504ZM62.7829 77.922L62.2589 78.7737L62.2727 78.7822L62.2868 78.7902L62.7829 77.922ZM62.8489 80.1V79.1C62.4748 79.1 62.1171 79.0476 61.7723 78.9442L61.4849 79.902L61.1976 80.8598C61.7328 81.0204 62.2844 81.1 62.8489 81.1V80.1ZM61.4849 79.902L61.7813 78.9469C61.4815 78.8539 61.2304 78.7139 61.0166 78.5292L60.3629 79.286L59.7093 80.0428C60.1408 80.4155 60.6377 80.6861 61.1885 80.8571L61.4849 79.902ZM60.3629 79.286L60.9962 78.512C60.8 78.3515 60.6327 78.1388 60.5 77.8529L59.5929 78.274L58.6859 78.6951C58.9345 79.2306 59.2806 79.6925 59.7297 80.06L60.3629 79.286ZM59.5929 78.274L60.5055 77.8649C60.384 77.594 60.3069 77.2403 60.3069 76.778H59.3069H58.3069C58.3069 77.4597 58.4205 78.1033 58.6804 78.6831L59.5929 78.274ZM59.3069 76.778H60.3069V72.862H59.3069H58.3069V76.778H59.3069ZM59.3069 72.862H60.3069C60.3069 72.5643 60.3726 72.2973 60.5027 72.0463L59.6149 71.586L58.7272 71.1257C58.4466 71.6667 58.3069 72.2503 58.3069 72.862H59.3069ZM59.6149 71.586L60.4891 72.0716C60.6485 71.7847 60.8548 71.5355 61.1131 71.3202L60.4729 70.552L59.8328 69.7838C59.3871 70.1551 59.0214 70.5953 58.7408 71.1004L59.6149 71.586ZM60.4729 70.552L61.0976 71.3329C61.3645 71.1194 61.6834 70.9459 62.0652 70.8187L61.7489 69.87L61.4327 68.9213C60.8465 69.1167 60.3147 69.398 59.8483 69.7711L60.4729 70.552ZM61.7489 69.87L62.0652 70.8187C62.4409 70.6934 62.8469 70.628 63.2889 70.628V69.628V68.628C62.6457 68.628 62.025 68.7239 61.4327 68.9213L61.7489 69.87ZM63.2889 69.628V70.628H64.6529V69.628V68.628H63.2889V69.628ZM64.6529 69.628V70.628C65.1739 70.628 65.6164 70.7024 65.9921 70.835L66.3249 69.892L66.6578 68.949C66.0362 68.7296 65.364 68.628 64.6529 68.628V69.628ZM66.3249 69.892L66.0006 70.8379C66.4217 70.9823 66.7563 71.1657 67.0202 71.3769L67.6449 70.596L68.2696 69.8151C67.8003 69.4397 67.2548 69.1537 66.6493 68.9461L66.3249 69.892ZM67.6449 70.596L67.0202 71.3769C67.2709 71.5774 67.4508 71.8078 67.5739 72.0731L68.4809 71.652L69.388 71.2309C69.1298 70.6748 68.7523 70.2013 68.2696 69.8151L67.6449 70.596ZM68.4809 71.652L67.5865 72.0992C67.7231 72.3724 67.7889 72.6522 67.7889 72.95H68.7889H69.7889C69.7889 72.3385 69.6494 71.7529 69.3754 71.2048L68.4809 71.652ZM68.7889 72.95H67.7889V76.998H68.7889H69.7889V72.95H68.7889ZM68.7889 76.998H67.7889C67.7889 77.332 67.7302 77.6159 67.626 77.8624L68.5469 78.252L69.4679 78.6416C69.6863 78.1254 69.7889 77.5733 69.7889 76.998H68.7889ZM68.5469 78.252L67.626 77.8624C67.5236 78.1043 67.3802 78.2995 67.1922 78.4607L67.8429 79.22L68.4937 79.9793C68.9217 79.6125 69.2476 79.1624 69.4679 78.6416L68.5469 78.252ZM67.8429 79.22L67.172 78.4785C66.9722 78.6593 66.7255 78.8062 66.417 78.9126L66.7429 79.858L67.0689 80.8034C67.6111 80.6164 68.0977 80.338 68.5139 79.9615L67.8429 79.22ZM66.7429 79.858L66.3883 78.923C66.0929 79.035 65.7389 79.1 65.3129 79.1V80.1V81.1C65.943 81.1 66.5423 81.0036 67.0976 80.793L66.7429 79.858ZM65.3129 80.1V79.1H62.8489V80.1V81.1H65.3129V80.1ZM64.5429 78.098V79.098C64.9072 79.098 65.2812 79.0339 65.6282 78.8604L65.1809 77.966L64.7337 77.0716C64.7286 77.0741 64.6774 77.098 64.5429 77.098V78.098ZM65.1809 77.966L65.655 78.8465C65.9262 78.7004 66.1799 78.5151 66.3904 78.2784L65.6429 77.614L64.8955 76.9496C64.8713 76.9769 64.817 77.0262 64.7068 77.0855L65.1809 77.966ZM65.6429 77.614L66.3862 78.283C66.5914 78.055 66.7601 77.7924 66.8687 77.4937L65.9289 77.152L64.9892 76.8103C64.9804 76.8343 64.9585 76.8797 64.8997 76.945L65.6429 77.614ZM65.9289 77.152L66.8776 77.4682C66.9653 77.2053 67.0169 76.9296 67.0169 76.646H66.0169H65.0169C65.0169 76.6851 65.0099 76.7467 64.9803 76.8358L65.9289 77.152ZM66.0169 76.646H67.0169V73.522H66.0169H65.0169V76.646H66.0169ZM66.0169 73.522H67.0169C67.0169 72.8655 66.7358 72.2982 66.3169 71.8373L65.5769 72.51L64.837 73.1827C65.0047 73.3672 65.0169 73.4745 65.0169 73.522H66.0169ZM65.5769 72.51L66.3479 71.8731C65.8455 71.2649 65.1431 71.004 64.3889 71.004V72.004V73.004C64.6615 73.004 64.7511 73.0804 64.806 73.1469L65.5769 72.51ZM64.3889 72.004V71.004H63.7729V72.004V73.004H64.3889V72.004ZM63.7729 72.004V71.004C63.471 71.004 63.1733 71.0473 62.8822 71.1305L63.1569 72.092L63.4317 73.0535C63.5512 73.0194 63.6642 73.004 63.7729 73.004V72.004ZM63.1569 72.092L62.8629 71.1362C62.5513 71.2321 62.2657 71.3839 62.007 71.578L62.6069 72.378L63.2069 73.178C63.3002 73.1081 63.3813 73.0692 63.451 73.0478L63.1569 72.092ZM62.6069 72.378L62.0188 71.5693C61.726 71.7822 61.4981 72.0547 61.3305 72.3659L62.2109 72.84L63.0914 73.3141C63.1292 73.244 63.1652 73.2085 63.1951 73.1867L62.6069 72.378ZM62.2109 72.84L61.3305 72.3659C61.13 72.7381 61.0569 73.146 61.0569 73.544H62.0569H63.0569C63.0569 73.3846 63.0865 73.3232 63.0914 73.3141L62.2109 72.84ZM62.0569 73.544H61.0569V76.536H62.0569H63.0569V73.544H62.0569ZM62.0569 76.536H61.0569C61.0569 76.7261 61.0798 76.9367 61.1126 77.1501L62.1009 76.998L63.0893 76.8459C63.0635 76.678 63.0569 76.5806 63.0569 76.536H62.0569ZM62.1009 76.998L61.1308 77.2405C61.2023 77.5263 61.3201 77.7938 61.4773 78.0409L62.3209 77.504L63.1646 76.9671C63.1165 76.8915 63.0876 76.8217 63.0711 76.7555L62.1009 76.998ZM62.3209 77.504L61.5122 78.0922C61.7152 78.3712 61.9706 78.5963 62.2589 78.7737L62.7829 77.922L63.307 77.0703C63.214 77.0131 63.1614 76.9594 63.1297 76.9158L62.3209 77.504ZM62.7829 77.922L62.2868 78.7902C62.6822 79.0162 63.1222 79.098 63.5529 79.098V78.098V77.098C63.3677 77.098 63.2943 77.0625 63.2791 77.0538L62.7829 77.922ZM63.5529 78.098V79.098H64.5429V78.098V77.098H63.5529V78.098ZM78.0546 80.1H77.0546V81.1H78.0546V80.1ZM77.9226 73.566L76.9739 73.8822L76.9832 73.9101L76.9941 73.9374L77.9226 73.566ZM77.5926 72.994L76.8526 73.6667V73.6667L77.5926 72.994ZM77.0866 72.598L76.5827 73.4618L76.5974 73.4704L76.6125 73.4785L77.0866 72.598ZM74.5346 72.554L74.1499 71.6309L74.1352 71.637L74.1208 71.6436L74.5346 72.554ZM74.0726 72.862L74.7415 73.6053H74.7415L74.0726 72.862ZM73.6986 73.324L72.8348 72.8201L72.8185 72.848L72.8041 72.8768L73.6986 73.324ZM73.5666 80.1V81.1H74.5666V80.1H73.5666ZM70.3326 80.1H69.3326V81.1H70.3326V80.1ZM70.3326 69.386V68.386H69.3326V69.386H70.3326ZM73.5666 69.386H74.5666V68.386H73.5666V69.386ZM73.5666 70.266H72.5666V71.9892L74.0627 71.1342L73.5666 70.266ZM74.2926 69.98L74.5471 70.9471L74.5705 70.9409L74.5937 70.9336L74.2926 69.98ZM79.2426 70.86L78.5354 71.5671L79.2426 70.86ZM80.0126 72.07L79.0821 72.4365L79.0861 72.4464L80.0126 72.07ZM80.2986 80.1V81.1H81.2986V80.1H80.2986ZM78.0546 80.1H79.0546V74.226H78.0546H77.0546V80.1H78.0546ZM78.0546 74.226H79.0546C79.0546 73.8693 78.9826 73.5236 78.851 73.1946L77.9226 73.566L76.9941 73.9374C77.0385 74.0484 77.0546 74.1427 77.0546 74.226H78.0546ZM77.9226 73.566L78.8712 73.2498C78.7567 72.9063 78.5787 72.5921 78.3325 72.3213L77.5926 72.994L76.8526 73.6667C76.8998 73.7186 76.9417 73.7857 76.9739 73.8822L77.9226 73.566ZM77.5926 72.994L78.3325 72.3213C78.1102 72.0768 77.8518 71.8743 77.5607 71.7175L77.0866 72.598L76.6125 73.4785C76.7027 73.5271 76.7816 73.5886 76.8526 73.6667L77.5926 72.994ZM77.0866 72.598L77.5904 71.7342C77.2724 71.5487 76.9165 71.444 76.5366 71.444V72.444V73.444C76.538 73.444 76.5487 73.442 76.5827 73.4618L77.0866 72.598ZM76.5366 72.444V71.444H75.0406V72.444V73.444H76.5366V72.444ZM75.0406 72.444V71.444C74.7255 71.444 74.426 71.5159 74.1499 71.6309L74.5346 72.554L74.9192 73.4771C74.9951 73.4454 75.033 73.444 75.0406 73.444V72.444ZM74.5346 72.554L74.1208 71.6436C73.8564 71.7638 73.6177 71.926 73.4036 72.1187L74.0726 72.862L74.7415 73.6053C74.8207 73.534 74.89 73.4909 74.9484 73.4644L74.5346 72.554ZM74.0726 72.862L73.4036 72.1187C73.1775 72.3222 72.9879 72.5577 72.8348 72.8201L73.6986 73.324L74.5623 73.8279C74.6146 73.7383 74.6743 73.6658 74.7415 73.6053L74.0726 72.862ZM73.6986 73.324L72.8041 72.8768C72.649 73.187 72.5666 73.523 72.5666 73.874H73.5666H74.5666C74.5666 73.8436 74.5721 73.813 74.593 73.7712L73.6986 73.324ZM73.5666 73.874H72.5666V80.1H73.5666H74.5666V73.874H73.5666ZM73.5666 80.1V79.1H70.3326V80.1V81.1H73.5666V80.1ZM70.3326 80.1H71.3326V69.386H70.3326H69.3326V80.1H70.3326ZM70.3326 69.386V70.386H73.5666V69.386V68.386H70.3326V69.386ZM73.5666 69.386H72.5666V70.266H73.5666H74.5666V69.386H73.5666ZM73.5666 70.266L74.0627 71.1342C74.1777 71.0685 74.3352 71.0028 74.5471 70.9471L74.2926 69.98L74.0381 69.0129C73.6926 69.1038 73.366 69.2288 73.0704 69.3978L73.5666 70.266ZM74.2926 69.98L74.5937 70.9336C74.7913 70.8712 74.9532 70.848 75.0846 70.848V69.848V68.848C74.7172 68.848 74.3512 68.9128 73.9914 69.0264L74.2926 69.98ZM75.0846 69.848V70.848H76.6906V69.848V68.848H75.0846V69.848ZM76.6906 69.848V70.848C77.0687 70.848 77.4114 70.9142 77.7272 71.0405L78.0986 70.112L78.4699 69.1835C77.9057 68.9578 77.3097 68.848 76.6906 68.848V69.848ZM78.0986 70.112L77.7272 71.0405C78.0464 71.1682 78.3122 71.3439 78.5354 71.5671L79.2426 70.86L79.9497 70.1529C79.5275 69.7308 79.0307 69.4078 78.4699 69.1835L78.0986 70.112ZM79.2426 70.86L78.5354 71.5671C78.7484 71.7801 78.9348 72.0624 79.0821 72.4365L80.0126 72.07L80.943 71.7035C80.709 71.1096 80.382 70.5852 79.9497 70.1529L79.2426 70.86ZM80.0126 72.07L79.0861 72.4464C79.2211 72.7788 79.2986 73.1762 79.2986 73.654H80.2986H81.2986C81.2986 72.9585 81.1853 72.2998 80.939 71.6936L80.0126 72.07ZM80.2986 73.654H79.2986V80.1H80.2986H81.2986V73.654H80.2986ZM80.2986 80.1V79.1H78.0546V80.1V81.1H80.2986V80.1ZM90.5576 69.606H91.5576V68.606H90.5576V69.606ZM90.2056 82.52L89.3539 81.9959L89.3465 82.008L89.3394 82.0203L90.2056 82.52ZM89.3696 83.444L88.7985 82.6231L88.778 82.6374L88.7582 82.6527L89.3696 83.444ZM88.2916 83.972L88.0406 83.004L88.0316 83.0064L88.2916 83.972ZM84.0236 83.95L84.3521 83.0055V83.0055L84.0236 83.95ZM83.0996 83.4L82.413 84.127L82.4228 84.1363L82.4328 84.1452L83.0996 83.4ZM82.4176 82.454L81.5096 82.8731L81.5162 82.8872L81.5232 82.9012L82.4176 82.454ZM82.1536 81.112V80.112H81.1536V81.112H82.1536ZM84.6836 81.112L85.6786 81.0125L85.5886 80.112H84.6836V81.112ZM84.9036 81.948L84.0556 82.478L84.0781 82.514L84.1036 82.548L84.9036 81.948ZM85.2336 82.234L85.7192 81.3598V81.3598L85.2336 82.234ZM87.4996 82.014L86.8173 81.2829L86.7921 81.3065L86.7685 81.3317L87.4996 82.014ZM87.8296 79.418H88.8296V76.812L87.0863 78.749L87.8296 79.418ZM87.1916 79.748L86.9491 78.7779L86.9265 78.7835L86.9043 78.7902L87.1916 79.748ZM83.6056 79.682L83.2544 80.6184L83.2669 80.6229L83.6056 79.682ZM82.6596 79.11L83.3264 78.3648L83.3152 78.3548L83.3037 78.3451L82.6596 79.11ZM81.9996 78.252L81.0825 78.6507L81.0897 78.6672L81.0975 78.6835L81.9996 78.252ZM82.0216 72.246L81.1136 71.8269L81.1099 71.8351L81.1063 71.8433L82.0216 72.246ZM82.7036 71.278L83.3913 72.004L83.3923 72.003L82.7036 71.278ZM83.7156 70.618L83.326 69.697L83.7156 70.618ZM87.8296 70.772L87.3723 71.6613L88.8296 72.4108V70.772H87.8296ZM87.8296 69.606V68.606H86.8296V69.606H87.8296ZM87.2796 77.9L87.8935 78.6894V78.6894L87.2796 77.9ZM87.1696 72.598L86.6063 73.4242L86.6276 73.4388L86.6497 73.4522L87.1696 72.598ZM84.6396 72.664L85.3262 73.391L85.3366 73.3812L85.3467 73.3711L84.6396 72.664ZM84.5296 77.768L85.368 77.223V77.223L84.5296 77.768ZM90.5576 69.606H89.5576V81.09H90.5576H91.5576V69.606H90.5576ZM90.5576 81.09H89.5576C89.5576 81.5276 89.4681 81.8104 89.3539 81.9959L90.2056 82.52L91.0573 83.0441C91.4124 82.467 91.5576 81.7964 91.5576 81.09H90.5576ZM90.2056 82.52L89.3394 82.0203C89.1876 82.2834 89.0066 82.4784 88.7985 82.6231L89.3696 83.444L89.9407 84.2649C90.4073 83.9403 90.7836 83.5193 91.0718 83.0197L90.2056 82.52ZM89.3696 83.444L88.7582 82.6527C88.5428 82.8191 88.3062 82.9352 88.0406 83.004L88.2916 83.972L88.5426 84.94C89.069 84.8035 89.551 84.5676 89.981 84.2353L89.3696 83.444ZM88.2916 83.972L88.0316 83.0064C87.7125 83.0923 87.4572 83.126 87.2576 83.126V84.126V85.126C87.674 85.126 88.108 85.057 88.5516 84.9376L88.2916 83.972ZM87.2576 84.126V83.126H84.9916V84.126V85.126H87.2576V84.126ZM84.9916 84.126V83.126C84.8117 83.126 84.6004 83.0918 84.3521 83.0055L84.0236 83.95L83.6951 84.8945C84.1215 85.0428 84.5555 85.126 84.9916 85.126V84.126ZM84.0236 83.95L84.3521 83.0055C84.1454 82.9336 83.9513 82.8202 83.7664 82.6548L83.0996 83.4L82.4328 84.1452C82.8053 84.4785 83.2271 84.7317 83.6951 84.8945L84.0236 83.95ZM83.0996 83.4L83.7862 82.673C83.6207 82.5167 83.4593 82.3013 83.312 82.0068L82.4176 82.454L81.5232 82.9012C81.7573 83.3694 82.0505 83.7847 82.413 84.127L83.0996 83.4ZM82.4176 82.454L83.3256 82.0349C83.2221 81.8109 83.1536 81.5121 83.1536 81.112H82.1536H81.1536C81.1536 81.7386 81.2611 82.3345 81.5096 82.8731L82.4176 82.454ZM82.1536 81.112V82.112H84.6836V81.112V80.112H82.1536V81.112ZM84.6836 81.112L83.6886 81.2115C83.7065 81.3911 83.7334 81.57 83.769 81.7481L84.7496 81.552L85.7302 81.3559C85.7071 81.2407 85.69 81.1263 85.6786 81.0125L84.6836 81.112ZM84.7496 81.552L83.769 81.7481C83.8201 82.0035 83.9133 82.2503 84.0556 82.478L84.9036 81.948L85.7516 81.418C85.7473 81.4111 85.7378 81.3938 85.7302 81.3559L84.7496 81.552ZM84.9036 81.948L84.1036 82.548C84.2785 82.7812 84.4968 82.9686 84.748 83.1082L85.2336 82.234L85.7192 81.3598C85.7064 81.3527 85.7047 81.3495 85.7036 81.348L84.9036 81.948ZM85.2336 82.234L84.748 83.1082C85.0724 83.2884 85.4228 83.344 85.7396 83.344V82.344V81.344C85.6953 81.344 85.6744 81.34 85.6715 81.3393C85.6694 81.3389 85.6885 81.3428 85.7192 81.3598L85.2336 82.234ZM85.7396 82.344V83.344H86.6856V82.344V81.344H85.7396V82.344ZM86.6856 82.344V83.344C87.2631 83.344 87.8123 83.1445 88.2307 82.6963L87.4996 82.014L86.7685 81.3317C86.7641 81.3364 86.7626 81.3372 86.764 81.3362C86.7655 81.3352 86.7668 81.3346 86.7664 81.3348C86.7658 81.335 86.7605 81.3371 86.7484 81.3393C86.736 81.3416 86.7156 81.344 86.6856 81.344V82.344ZM87.4996 82.014L88.1819 82.7451C88.5592 82.3929 88.8296 81.9149 88.8296 81.332H87.8296H86.8296C86.8296 81.3201 86.831 81.3056 86.8346 81.29C86.8382 81.2745 86.843 81.2622 86.8469 81.2539C86.8549 81.2375 86.854 81.2487 86.8173 81.2829L87.4996 82.014ZM87.8296 81.332H88.8296V79.418H87.8296H86.8296V81.332H87.8296ZM87.8296 79.418L87.0863 78.749C87.1161 78.7159 87.1331 78.7112 87.1117 78.7223C87.0894 78.7338 87.0392 78.7553 86.9491 78.7779L87.1916 79.748L87.4341 80.7181C87.8249 80.6205 88.2542 80.4411 88.5729 80.087L87.8296 79.418ZM87.1916 79.748L86.9043 78.7902C86.655 78.865 86.5183 78.88 86.4656 78.88V79.88V80.88C86.7942 80.88 87.1416 80.807 87.479 80.7058L87.1916 79.748ZM86.4656 79.88V78.88H84.7936V79.88V80.88H86.4656V79.88ZM84.7936 79.88V78.88C84.4732 78.88 84.1928 78.8306 83.9443 78.7411L83.6056 79.682L83.2669 80.6229C83.7517 80.7974 84.2633 80.88 84.7936 80.88V79.88ZM83.6056 79.682L83.9567 78.7457C83.7203 78.657 83.5121 78.5309 83.3264 78.3648L82.6596 79.11L81.9928 79.8552C82.3644 80.1878 82.7869 80.443 83.2545 80.6183L83.6056 79.682ZM82.6596 79.11L83.3037 78.3451C83.1367 78.2044 83.0034 78.0331 82.9017 77.8205L81.9996 78.252L81.0975 78.6835C81.3185 79.1455 81.6252 79.5462 82.0155 79.8749L82.6596 79.11ZM81.9996 78.252L82.9167 77.8533C82.8307 77.6556 82.7796 77.4195 82.7796 77.13H81.7796H80.7796C80.7796 77.6618 80.8751 78.1737 81.0825 78.6507L81.9996 78.252ZM81.7796 77.13H82.7796V73.434H81.7796H80.7796V77.13H81.7796ZM81.7796 73.434H82.7796C82.7796 73.1386 82.8348 72.8807 82.9369 72.6487L82.0216 72.246L81.1063 71.8433C80.8857 72.3446 80.7796 72.8787 80.7796 73.434H81.7796ZM82.0216 72.246L82.9296 72.6651C83.0574 72.3882 83.2132 72.1727 83.3913 72.004L82.7036 71.278L82.0159 70.552C81.6366 70.9113 81.3379 71.3411 81.1136 71.8269L82.0216 72.246ZM82.7036 71.278L83.3923 72.003C83.5965 71.809 83.8319 71.6546 84.1052 71.539L83.7156 70.618L83.326 69.697C82.8366 69.9041 82.3974 70.1896 82.0149 70.553L82.7036 71.278ZM83.7156 70.618L84.1052 71.539C84.3557 71.433 84.6329 71.376 84.9476 71.376V70.376V69.376C84.3822 69.376 83.8382 69.4803 83.326 69.697L83.7156 70.618ZM84.9476 70.376V71.376H86.3116V70.376V69.376H84.9476V70.376ZM86.3116 70.376V71.376C86.6278 71.376 86.978 71.4585 87.3723 71.6613L87.8296 70.772L88.2869 69.8827C87.6545 69.5574 86.9927 69.376 86.3116 69.376V70.376ZM87.8296 70.772H88.8296V69.606H87.8296H86.8296V70.772H87.8296ZM87.8296 69.606V70.606H90.5576V69.606V68.606H87.8296V69.606ZM86.3776 78.208V79.208C86.9352 79.208 87.4524 79.0325 87.8935 78.6894L87.2796 77.9L86.6657 77.1106C86.5788 77.1782 86.4946 77.208 86.3776 77.208V78.208ZM87.2796 77.9L87.8935 78.6894C88.5256 78.1978 88.6756 77.4194 88.6756 76.756H87.6756H86.6756C86.6756 76.9626 86.6502 77.0791 86.6316 77.1329C86.6157 77.1789 86.6159 77.1494 86.6657 77.1106L87.2796 77.9ZM87.6756 76.756H88.6756V73.61H87.6756H86.6756V76.756H87.6756ZM87.6756 73.61H88.6756C88.6756 72.8688 88.3854 72.1674 87.6896 71.7438L87.1696 72.598L86.6497 73.4522C86.661 73.4591 86.6625 73.4618 86.6596 73.4587C86.6564 73.4553 86.6546 73.4521 86.6547 73.4522C86.6547 73.4522 86.6756 73.4935 86.6756 73.61H87.6756ZM87.1696 72.598L87.7329 71.7718C87.2632 71.4515 86.7323 71.268 86.1576 71.268V72.268V73.268C86.2869 73.268 86.4307 73.3045 86.6063 73.4242L87.1696 72.598ZM86.1576 72.268V71.268H85.6956V72.268V73.268H86.1576V72.268ZM85.6956 72.268V71.268C85.0413 71.268 84.4172 71.4722 83.9325 71.9569L84.6396 72.664L85.3467 73.3711C85.39 73.3278 85.4699 73.268 85.6956 73.268V72.268ZM84.6396 72.664L83.953 71.937C83.4347 72.4265 83.2436 73.0823 83.2436 73.742H84.2436H85.2436C85.2436 73.463 85.3165 73.4002 85.3262 73.391L84.6396 72.664ZM84.2436 73.742H83.2436V76.866H84.2436H85.2436V73.742H84.2436ZM84.2436 76.866H83.2436C83.2436 77.3929 83.4098 77.8801 83.6912 78.313L84.5296 77.768L85.368 77.223C85.2681 77.0692 85.2436 76.9551 85.2436 76.866H84.2436ZM84.5296 77.768L83.6912 78.313C84.1145 78.9643 84.7962 79.208 85.4756 79.208V78.208V77.208C85.3639 77.208 85.3262 77.1891 85.3308 77.1913C85.3337 77.1926 85.3422 77.1972 85.3522 77.2059C85.3621 77.2146 85.3672 77.2217 85.368 77.223L84.5296 77.768ZM85.4756 78.208V79.208H86.3776V78.208V77.208H85.4756V78.208ZM92.2057 64.084V63.084H91.2057V64.084H92.2057ZM100.764 64.304L100.547 65.2802V65.2802L100.764 64.304ZM102.568 65.118L101.978 65.9258L101.991 65.9347L102.003 65.9433L102.568 65.118ZM103.932 66.702L103.045 67.1646V67.1646L103.932 66.702ZM104.438 69.298L103.438 69.2841L103.438 69.2938L104.438 69.298ZM104.416 74.6L103.416 74.5958V74.6H104.416ZM103.844 77.108L102.964 76.6317L102.961 76.6384L103.844 77.108ZM102.436 78.802L103.045 79.5946V79.5946L102.436 78.802ZM100.522 79.77L100.242 78.81L100.23 78.8135L100.218 78.8173L100.522 79.77ZM92.2057 80.1H91.2057V81.1H92.2057V80.1ZM100.896 67.934L100.2 68.6519L100.211 68.6626L100.222 68.673L100.896 67.934ZM95.7477 67.23V66.23H94.7477V67.23H95.7477ZM95.7477 76.624H94.7477V77.624H95.7477V76.624ZM99.6857 76.514L99.8818 77.4946L99.8962 77.4917L99.9106 77.4884L99.6857 76.514ZM100.676 76.096L100.131 75.2576L100.121 75.264L100.111 75.2707L100.676 76.096ZM101.38 75.326L102.258 75.8049V75.8049L101.38 75.326ZM92.2057 64.084V65.084H98.8497V64.084V63.084H92.2057V64.084ZM98.8497 64.084V65.084C99.3861 65.084 99.9512 65.1478 100.547 65.2802L100.764 64.304L100.981 63.3278C100.256 63.1668 99.5454 63.084 98.8497 63.084V64.084ZM100.764 64.304L100.547 65.2802C101.073 65.3972 101.548 65.6115 101.978 65.9258L102.568 65.118L103.157 64.3102C102.503 63.8325 101.774 63.5042 100.981 63.3278L100.764 64.304ZM102.568 65.118L102.003 65.9433C102.409 66.2207 102.759 66.6167 103.045 67.1646L103.932 66.702L104.818 66.2394C104.4 65.438 103.842 64.7779 103.132 64.2927L102.568 65.118ZM103.932 66.702L103.045 67.1646C103.296 67.6463 103.451 68.3329 103.438 69.2841L104.438 69.298L105.438 69.3119C105.454 68.1511 105.271 67.107 104.818 66.2394L103.932 66.702ZM104.438 69.298L103.438 69.2938L103.416 74.5958L104.416 74.6L105.416 74.6041L105.438 69.3021L104.438 69.298ZM104.416 74.6H103.416C103.416 75.4362 103.252 76.1016 102.964 76.6317L103.844 77.108L104.723 77.5843C105.199 76.7064 105.416 75.6998 105.416 74.6H104.416ZM103.844 77.108L102.961 76.6384C102.656 77.2123 102.276 77.6633 101.826 78.0094L102.436 78.802L103.045 79.5946C103.739 79.0607 104.299 78.3824 104.727 77.5776L103.844 77.108ZM102.436 78.802L101.826 78.0094C101.354 78.3723 100.828 78.6389 100.242 78.81L100.522 79.77L100.802 80.73C101.623 80.4904 102.373 80.1117 103.045 79.5946L102.436 78.802ZM100.522 79.77L100.218 78.8173C99.6195 79.0082 99.04 79.1 98.4757 79.1V80.1V81.1C99.2608 81.1 100.045 80.9718 100.826 80.7227L100.522 79.77ZM98.4757 80.1V79.1H92.2057V80.1V81.1H98.4757V80.1ZM92.2057 80.1H93.2057V64.084H92.2057H91.2057V80.1H92.2057ZM101.644 70.112H102.644C102.644 68.969 102.359 67.9145 101.569 67.195L100.896 67.934L100.222 68.673C100.43 68.8628 100.644 69.2603 100.644 70.112H101.644ZM100.896 67.934L101.592 67.2161C100.819 66.4667 99.6309 66.23 98.3437 66.23V67.23V68.23C99.4912 68.23 100.004 68.4627 100.2 68.6519L100.896 67.934ZM98.3437 67.23V66.23H95.7477V67.23V68.23H98.3437V67.23ZM95.7477 67.23H94.7477V76.624H95.7477H96.7477V67.23H95.7477ZM95.7477 76.624V77.624H98.5417V76.624V75.624H95.7477V76.624ZM98.5417 76.624V77.624C98.9997 77.624 99.4469 77.5816 99.8818 77.4946L99.6857 76.514L99.4896 75.5334C99.1912 75.5931 98.8757 75.624 98.5417 75.624V76.624ZM99.6857 76.514L99.9106 77.4884C100.394 77.3767 100.844 77.1927 101.24 76.9213L100.676 76.096L100.111 75.2707C99.9503 75.3806 99.7397 75.4753 99.4609 75.5396L99.6857 76.514ZM100.676 76.096L101.221 76.9344C101.66 76.6488 102.006 76.2655 102.258 75.8049L101.38 75.326L100.502 74.8471C100.401 75.0318 100.278 75.1619 100.131 75.2576L100.676 76.096ZM101.38 75.326L102.258 75.8049C102.537 75.2922 102.644 74.7029 102.644 74.094H101.644H100.644C100.644 74.4824 100.574 74.7144 100.502 74.8471L101.38 75.326ZM101.644 74.094H102.644V70.112H101.644H100.644V74.094H101.644ZM109.358 79.88L109.104 80.8471L109.11 80.8487L109.358 79.88ZM107.796 79.132L108.385 78.3233L108.377 78.3174L108.368 78.3116L107.796 79.132ZM106.586 77.79L105.711 78.2737L105.716 78.2824L105.721 78.291L106.586 77.79ZM106.542 66.878L107.446 67.3071V67.3071L106.542 66.878ZM107.664 65.382L108.323 66.1346L108.325 66.1332L107.664 65.382ZM109.336 64.414L109.666 65.3582L109.676 65.3548L109.685 65.3512L109.336 64.414ZM115.584 64.414L115.229 65.3485L115.238 65.3522L115.248 65.3557L115.584 64.414ZM117.168 65.382L116.473 66.101L116.486 66.1128L116.498 66.1241L117.168 65.382ZM118.224 66.878L117.304 67.2692L117.308 67.2776L118.224 66.878ZM118.18 77.57L117.291 77.1132L117.286 77.1228L118.18 77.57ZM117.124 78.934L117.777 79.6914L117.779 79.6897L117.124 78.934ZM115.694 79.792L115.332 78.86L115.323 78.8635L115.694 79.792ZM114.704 76.91L115.357 77.6674L115.365 77.6611L115.372 77.6546L114.704 76.91ZM115.188 68.264L114.245 68.5968L114.254 68.621L114.264 68.6447L115.188 68.264ZM114.77 67.604L115.478 66.8969V66.8969L114.77 67.604ZM114.044 67.164L113.656 68.0856L113.685 68.0976L113.714 68.1079L114.044 67.164ZM110.744 67.164L110.389 66.2295L110.381 66.2325L110.373 66.2355L110.744 67.164ZM109.886 76.822L110.67 76.2006V76.2006L109.886 76.822ZM114.198 80.1V79.1H110.942V80.1V81.1H114.198V80.1ZM110.942 80.1V79.1C110.558 79.1 110.115 79.0416 109.607 78.9113L109.358 79.88L109.11 80.8487C109.746 81.0118 110.359 81.1 110.942 81.1V80.1ZM109.358 79.88L109.613 78.9129C109.18 78.7991 108.772 78.6051 108.385 78.3233L107.796 79.132L107.208 79.9407C107.789 80.3629 108.422 80.6676 109.104 80.8471L109.358 79.88ZM107.796 79.132L108.368 78.3116C108.015 78.0654 107.708 77.7314 107.452 77.289L106.586 77.79L105.721 78.291C106.11 78.9633 106.61 79.5239 107.225 79.9524L107.796 79.132ZM106.586 77.79L107.462 77.3063C107.256 76.9339 107.124 76.4219 107.124 75.722H106.124H105.124C105.124 76.6647 105.301 77.5314 105.711 78.2737L106.586 77.79ZM106.124 75.722H107.124V68.836H106.124H105.124V75.722H106.124ZM106.124 68.836H107.124C107.124 68.2498 107.237 67.7459 107.446 67.3071L106.542 66.878L105.639 66.4489C105.29 67.1834 105.124 67.9849 105.124 68.836H106.124ZM106.542 66.878L107.446 67.3071C107.668 66.8386 107.961 66.4515 108.323 66.1346L107.664 65.382L107.006 64.6294C106.43 65.1338 105.974 65.7441 105.639 66.4489L106.542 66.878ZM107.664 65.382L108.325 66.1332C108.708 65.796 109.152 65.5373 109.666 65.3582L109.336 64.414L109.007 63.4698C108.259 63.7307 107.589 64.1173 107.004 64.6308L107.664 65.382ZM109.336 64.414L109.685 65.3512C110.199 65.16 110.748 65.062 111.338 65.062V64.062V63.062C110.521 63.062 109.735 63.1987 108.988 63.4768L109.336 64.414ZM111.338 64.062V65.062H113.582V64.062V63.062H111.338V64.062ZM113.582 64.062V65.062C114.191 65.062 114.736 65.1609 115.229 65.3485L115.584 64.414L115.94 63.4795C115.201 63.1978 114.412 63.062 113.582 63.062V64.062ZM115.584 64.414L115.248 65.3557C115.739 65.5312 116.143 65.7813 116.473 66.101L117.168 65.382L117.864 64.663C117.314 64.132 116.661 63.7368 115.921 63.4723L115.584 64.414ZM117.168 65.382L116.498 66.1241C116.841 66.4334 117.109 66.8107 117.304 67.2691L118.224 66.878L119.145 66.4869C118.841 65.772 118.406 65.152 117.839 64.6399L117.168 65.382ZM118.224 66.878L117.308 67.2776C117.494 67.7058 117.598 68.2121 117.598 68.814H118.598H119.598C119.598 67.9786 119.453 67.1942 119.141 66.4784L118.224 66.878ZM118.598 68.814H117.598V75.788H118.598H119.598V68.814H118.598ZM118.598 75.788H117.598C117.598 76.2839 117.493 76.72 117.291 77.1132L118.18 77.57L119.07 78.0268C119.426 77.3346 119.598 76.5828 119.598 75.788H118.598ZM118.18 77.57L117.286 77.1228C117.08 77.5349 116.809 77.8843 116.47 78.1783L117.124 78.934L117.779 79.6897C118.32 79.2211 118.753 78.6611 119.075 78.0172L118.18 77.57ZM117.124 78.934L116.472 78.1766C116.133 78.4683 115.755 78.6955 115.332 78.86L115.694 79.792L116.057 80.724C116.69 80.4778 117.265 80.133 117.777 79.6914L117.124 78.934ZM115.694 79.792L115.323 78.8635C114.911 79.0283 114.538 79.1 114.198 79.1V80.1V81.1C114.827 81.1 115.451 80.9664 116.066 80.7205L115.694 79.792ZM113.01 77.46V78.46C113.891 78.46 114.708 78.2272 115.357 77.6674L114.704 76.91L114.052 76.1526C113.85 76.3261 113.538 76.46 113.01 76.46V77.46ZM114.704 76.91L115.372 77.6546C116.057 77.0406 116.342 76.1988 116.342 75.282H115.342H114.342C114.342 75.7732 114.203 76.0167 114.037 76.1654L114.704 76.91ZM115.342 75.282H116.342V69.056H115.342H114.342V75.282H115.342ZM115.342 69.056H116.342C116.342 68.6512 116.267 68.2574 116.113 67.8833L115.188 68.264L114.264 68.6447C114.315 68.7692 114.342 68.9035 114.342 69.056H115.342ZM115.188 68.264L116.131 67.9312C115.993 67.5382 115.772 67.191 115.478 66.8969L114.77 67.604L114.063 68.3111C114.151 68.3983 114.208 68.4911 114.245 68.5968L115.188 68.264ZM114.77 67.604L115.478 66.8969C115.166 66.5849 114.788 66.3649 114.375 66.2201L114.044 67.164L113.714 68.1079C113.887 68.1685 113.994 68.2417 114.063 68.3111L114.77 67.604ZM114.044 67.164L114.433 66.2424C113.999 66.06 113.522 65.988 113.032 65.988V66.988V67.988C113.335 67.988 113.532 68.0334 113.656 68.0856L114.044 67.164ZM113.032 66.988V65.988H111.8V66.988V67.988H113.032V66.988ZM111.8 66.988V65.988C111.307 65.988 110.831 66.0611 110.389 66.2295L110.744 67.164L111.1 68.0985C111.274 68.0322 111.502 67.988 111.8 67.988V66.988ZM110.744 67.164L110.373 66.2355C109.98 66.3927 109.622 66.6089 109.316 66.8932L109.996 67.626L110.677 68.3588C110.781 68.2618 110.922 68.1699 111.116 68.0925L110.744 67.164ZM109.996 67.626L109.316 66.8932C109.009 67.1782 108.77 67.517 108.61 67.9052L109.534 68.286L110.459 68.6667C110.505 68.5563 110.573 68.4551 110.677 68.3588L109.996 67.626ZM109.534 68.286L108.61 67.9052C108.456 68.2794 108.38 68.6732 108.38 69.078H109.38H110.38C110.38 68.9255 110.408 68.7912 110.459 68.6667L109.534 68.286ZM109.38 69.078H108.38V75.282H109.38H110.38V69.078H109.38ZM109.38 75.282H108.38C108.38 76.0832 108.61 76.8221 109.103 77.4434L109.886 76.822L110.67 76.2006C110.488 75.9712 110.38 75.6835 110.38 75.282H109.38ZM109.886 76.822L109.103 77.4434C109.711 78.2102 110.658 78.46 111.624 78.46V77.46V76.46C110.948 76.46 110.737 76.2845 110.67 76.2006L109.886 76.822ZM111.624 77.46V78.46H113.01V77.46V76.46H111.624V77.46ZM132.69 71.586H133.69V70.586H132.69V71.586ZM131.678 78.758L132.445 79.3996L132.451 79.3927L131.678 78.758ZM128.598 80.144L128.513 79.1476L128.501 79.1487L128.488 79.1501L128.598 80.144ZM126.992 80.21L126.964 81.2096L126.965 81.2096L126.992 80.21ZM125.188 80.144L125.232 79.1449L125.222 79.1445L125.213 79.1443L125.188 80.144ZM123.406 79.814L123.737 78.8701L123.726 78.8664L123.715 78.863L123.406 79.814ZM121.822 78.934L121.165 79.6881L121.171 79.6932L121.177 79.6983L121.822 78.934ZM120.7 77.438L119.797 77.868L119.801 77.8764L120.7 77.438ZM120.634 67.142L119.707 66.7668V66.7668L120.634 67.142ZM121.712 65.558L122.396 66.2875L122.397 66.2868L121.712 65.558ZM129.236 64.348L128.935 65.3016L128.942 65.3038L129.236 64.348ZM130.732 65.096L130.128 65.8927V65.8927L130.732 65.096ZM131.788 66.24L130.943 66.7751L130.954 66.7916L130.965 66.8077L131.788 66.24ZM132.492 67.67L132.782 68.6271L133.766 68.3291L133.441 67.3538L132.492 67.67ZM129.368 68.616L128.46 69.0351L128.825 69.8253L129.658 69.5731L129.368 68.616ZM129.082 68.066L129.946 67.5621L129.082 68.066ZM128.686 67.626L128.017 68.3693L128.056 68.4041L128.098 68.4347L128.686 67.626ZM128.136 67.318L127.8 68.2597L127.81 68.2633L127.82 68.2667L128.136 67.318ZM124.198 67.846L123.479 67.1514L123.472 67.1579L123.466 67.1646L124.198 67.846ZM124.176 76.778L123.432 77.4455L123.437 77.452L123.443 77.4585L124.176 76.778ZM128.51 77.174L128.08 76.2711L128.072 76.2753L128.063 76.2796L128.51 77.174ZM129.192 76.558L128.339 76.0365L128.328 76.0542L128.318 76.0724L129.192 76.558ZM129.5 75.634L130.492 75.758L130.493 75.7531L129.5 75.634ZM129.566 74.446H130.566V74.4349L130.566 74.4238L129.566 74.446ZM129.544 73.456L130.544 73.4338L130.522 72.456H129.544V73.456ZM126.948 73.456H125.948V74.456H126.948V73.456ZM126.948 71.586V70.586H125.948V71.586H126.948ZM132.69 71.586H131.69V75.15H132.69H133.69V71.586H132.69ZM132.69 75.15H131.69C131.69 76.6119 131.376 77.5502 130.905 78.1233L131.678 78.758L132.451 79.3927C133.33 78.3231 133.69 76.8561 133.69 75.15H132.69ZM131.678 78.758L130.911 78.1164C130.456 78.6601 129.714 79.0455 128.513 79.1476L128.598 80.144L128.683 81.1404C130.24 81.0079 131.551 80.4693 132.445 79.3996L131.678 78.758ZM128.598 80.144L128.488 79.1501C128.006 79.2036 127.517 79.2238 127.019 79.2104L126.992 80.21L126.965 81.2096C127.553 81.2255 128.134 81.2017 128.709 81.1379L128.598 80.144ZM126.992 80.21L127.02 79.2104C126.498 79.1959 125.902 79.1741 125.232 79.1449L125.188 80.144L125.145 81.1431C125.823 81.1726 126.43 81.1948 126.964 81.2096L126.992 80.21ZM125.188 80.144L125.213 79.1443C124.719 79.1323 124.228 79.0422 123.737 78.8701L123.406 79.814L123.076 80.7579C123.758 80.9965 124.455 81.1264 125.164 81.1437L125.188 80.144ZM123.406 79.814L123.715 78.863C123.251 78.7121 122.837 78.482 122.467 78.1697L121.822 78.934L121.177 79.6983C121.746 80.178 122.388 80.5346 123.097 80.765L123.406 79.814ZM121.822 78.934L122.479 78.1799C122.136 77.8811 121.84 77.4938 121.599 76.9996L120.7 77.438L119.801 77.8764C120.147 78.5849 120.599 79.1949 121.165 79.6881L121.822 78.934ZM120.7 77.438L121.603 77.0081C121.388 76.5574 121.26 75.9713 121.26 75.216H120.26H119.26C119.26 76.1914 119.425 77.0866 119.797 77.8679L120.7 77.438ZM120.26 75.216H121.26V69.122H120.26H119.26V75.216H120.26ZM120.26 69.122H121.26C121.26 68.5389 121.363 68.007 121.561 67.5172L120.634 67.142L119.707 66.7668C119.407 67.509 119.26 68.2971 119.26 69.122H120.26ZM120.634 67.142L121.561 67.5172C121.758 67.031 122.036 66.6251 122.396 66.2875L121.712 65.558L121.028 64.8285C120.45 65.3709 120.009 66.021 119.707 66.7668L120.634 67.142ZM121.712 65.558L122.397 66.2868C122.78 65.9271 123.248 65.633 123.815 65.4112L123.45 64.48L123.086 63.5488C122.303 63.855 121.613 64.2796 121.028 64.8292L121.712 65.558ZM123.45 64.48L123.815 65.4112C124.353 65.2006 124.996 65.084 125.76 65.084V64.084V63.084C124.794 63.084 123.897 63.2314 123.086 63.5488L123.45 64.48ZM125.76 64.084V65.084H127.322V64.084V63.084H125.76V64.084ZM127.322 64.084V65.084C127.961 65.084 128.495 65.1625 128.935 65.3016L129.236 64.348L129.537 63.3944C128.863 63.1815 128.12 63.084 127.322 63.084V64.084ZM129.236 64.348L128.942 65.3038C129.416 65.4495 129.806 65.6488 130.128 65.8927L130.732 65.096L131.337 64.2993C130.807 63.8978 130.201 63.5985 129.53 63.3922L129.236 64.348ZM130.732 65.096L130.128 65.8927C130.46 66.145 130.73 66.4385 130.943 66.7751L131.788 66.24L132.633 65.7049C132.289 65.1615 131.855 64.6923 131.337 64.2993L130.732 65.096ZM131.788 66.24L130.965 66.8077C131.201 67.1498 131.395 67.5407 131.544 67.9862L132.492 67.67L133.441 67.3538C133.237 66.7433 132.962 66.1809 132.611 65.6723L131.788 66.24ZM132.492 67.67L132.202 66.7129L129.078 67.6589L129.368 68.616L129.658 69.5731L132.782 68.6271L132.492 67.67ZM129.368 68.616L130.276 68.1969C130.175 67.9782 130.065 67.7665 129.946 67.5621L129.082 68.066L128.218 68.5699C128.305 68.7175 128.385 68.8725 128.46 69.0351L129.368 68.616ZM129.082 68.066L129.946 67.5621C129.775 67.2692 129.55 67.0178 129.274 66.8173L128.686 67.626L128.098 68.4347C128.145 68.4689 128.184 68.5108 128.218 68.5699L129.082 68.066ZM128.686 67.626L129.355 66.8827C129.09 66.644 128.78 66.4786 128.452 66.3693L128.136 67.318L127.82 68.2667C127.932 68.3041 127.989 68.344 128.017 68.3693L128.686 67.626ZM128.136 67.318L128.473 66.3763C128.121 66.2506 127.732 66.208 127.344 66.208V67.208V68.208C127.602 68.208 127.741 68.2387 127.8 68.2597L128.136 67.318ZM127.344 67.208V66.208H126.002V67.208V68.208H127.344V67.208ZM126.002 67.208V66.208C125.034 66.208 124.135 66.4715 123.479 67.1514L124.198 67.846L124.918 68.5406C125.082 68.3699 125.386 68.208 126.002 68.208V67.208ZM124.198 67.846L123.466 67.1646C122.896 67.7769 122.604 68.5271 122.604 69.364H123.604H124.604C124.604 69.0275 124.708 68.7657 124.93 68.5274L124.198 67.846ZM123.604 69.364H122.604V74.886H123.604H124.604V69.364H123.604ZM123.604 74.886H122.604C122.604 75.8562 122.824 76.7676 123.432 77.4455L124.176 76.778L124.921 76.1105C124.766 75.9377 124.604 75.5878 124.604 74.886H123.604ZM124.176 76.778L123.443 77.4585C124.06 78.1226 124.898 78.394 125.804 78.394V77.394V76.394C125.302 76.394 125.055 76.2547 124.909 76.0975L124.176 76.778ZM125.804 77.394V78.394H127.3V77.394V76.394H125.804V77.394ZM127.3 77.394V78.394C127.89 78.394 128.469 78.3128 128.957 78.0684L128.51 77.174L128.063 76.2796C127.965 76.3285 127.737 76.394 127.3 76.394V77.394ZM128.51 77.174L128.94 78.0769C129.411 77.8528 129.806 77.5126 130.066 77.0436L129.192 76.558L128.318 76.0724C128.285 76.1314 128.226 76.2019 128.08 76.2711L128.51 77.174ZM129.192 76.558L130.045 77.0795C130.291 76.6778 130.433 76.2303 130.492 75.758L129.5 75.634L128.508 75.51C128.479 75.7417 128.416 75.9102 128.339 76.0365L129.192 76.558ZM129.5 75.634L130.493 75.7531C130.542 75.3415 130.566 74.9053 130.566 74.446H129.566H128.566C128.566 74.8373 128.546 75.1931 128.507 75.5149L129.5 75.634ZM129.566 74.446L130.566 74.4238L130.544 73.4338L129.544 73.456L128.544 73.4782L128.566 74.4682L129.566 74.446ZM129.544 73.456V72.456H126.948V73.456V74.456H129.544V73.456ZM126.948 73.456H127.948V71.586H126.948H125.948V73.456H126.948ZM126.948 71.586V72.586H132.69V71.586V70.586H126.948V71.586ZM135.505 64.062V63.062H134.505V64.062H135.505ZM138.783 64.062H139.783V63.062H138.783V64.062ZM138.783 76.338V77.338H139.783V76.338H138.783ZM135.505 76.338H134.505V77.338H135.505V76.338ZM138.651 78.318H139.651V77.318H138.651V78.318ZM138.651 80.98V81.98H139.651V80.98H138.651ZM135.681 80.98H134.681V81.98H135.681V80.98ZM135.681 78.318V77.318H134.681V78.318H135.681ZM135.505 64.062V65.062H138.783V64.062V63.062H135.505V64.062ZM138.783 64.062H137.783V76.338H138.783H139.783V64.062H138.783ZM138.783 76.338V75.338H135.505V76.338V77.338H138.783V76.338ZM135.505 76.338H136.505V64.062H135.505H134.505V76.338H135.505ZM138.651 78.318H137.651V80.98H138.651H139.651V78.318H138.651ZM138.651 80.98V79.98H135.681V80.98V81.98H138.651V80.98ZM135.681 80.98H136.681V78.318H135.681H134.681V80.98H135.681ZM135.681 78.318V79.318H138.651V78.318V77.318H135.681V78.318Z" fill="#F47C2A" mask="url(#path-5-outside-1_23_6)"/>
</g>
<defs>
<filter id="filter0_d_23_6" x="23.4995" y="3.50003" width="93.918" height="114.093" filterUnits="userSpaceOnUse" color-interpolation-filters="sRGB">
<feFlood flood-opacity="0" result="BackgroundImageFix"/>
<feColorMatrix in="SourceAlpha" type="matrix" values="0 0 0 0 0 0 0 0 0 0 0 0 0 0 0 0 0 0 127 0" result="hardAlpha"/>
<feOffset dx="3" dy="4"/>
<feGaussianBlur stdDeviation="2"/>
<feComposite in2="hardAlpha" operator="out"/>
<feColorMatrix type="matrix" values="0 0 0 0 0 0 0 0 0 0 0 0 0 0 0 0 0 0 0.25 0"/>
<feBlend mode="normal" in2="BackgroundImageFix" result="effect1_dropShadow_23_6"/>
<feBlend mode="normal" in="SourceGraphic" in2="effect1_dropShadow_23_6" result="shape"/>
</filter>
<filter id="filter1_d_23_6" x="95.7112" y="25.2646" width="12.5272" height="59.1914" filterUnits="userSpaceOnUse" color-interpolation-filters="sRGB">
<feFlood flood-opacity="0" result="BackgroundImageFix"/>
<feColorMatrix in="SourceAlpha" type="matrix" values="0 0 0 0 0 0 0 0 0 0 0 0 0 0 0 0 0 0 127 0" result="hardAlpha"/>
<feOffset dx="3" dy="4"/>
<feGaussianBlur stdDeviation="2"/>
<feComposite in2="hardAlpha" operator="out"/>
<feColorMatrix type="matrix" values="0 0 0 0 0 0 0 0 0 0 0 0 0 0 0 0 0 0 0.25 0"/>
<feBlend mode="normal" in2="BackgroundImageFix" result="effect1_dropShadow_23_6"/>
<feBlend mode="normal" in="SourceGraphic" in2="effect1_dropShadow_23_6" result="shape"/>
</filter>
<filter id="filter2_d_23_6" x="100.684" y="19.3857" width="20.816" height="81.8861" filterUnits="userSpaceOnUse" color-interpolation-filters="sRGB">
<feFlood flood-opacity="0" result="BackgroundImageFix"/>
<feColorMatrix in="SourceAlpha" type="matrix" values="0 0 0 0 0 0 0 0 0 0 0 0 0 0 0 0 0 0 127 0" result="hardAlpha"/>
<feOffset dx="3" dy="4"/>
<feGaussianBlur stdDeviation="2"/>
<feComposite in2="hardAlpha" operator="out"/>
<feColorMatrix type="matrix" values="0 0 0 0 0 0 0 0 0 0 0 0 0 0 0 0 0 0 0.25 0"/>
<feBlend mode="normal" in2="BackgroundImageFix" result="effect1_dropShadow_23_6"/>
<feBlend mode="normal" in="SourceGraphic" in2="effect1_dropShadow_23_6" result="shape"/>
</filter>
<filter id="filter3_i_23_6" x="104.55" y="73.483" width="7.59406" height="20.6254" filterUnits="userSpaceOnUse" color-interpolation-filters="sRGB">
<feFlood flood-opacity="0" result="BackgroundImageFix"/>
<feBlend mode="normal" in="SourceGraphic" in2="BackgroundImageFix" result="shape"/>
<feColorMatrix in="SourceAlpha" type="matrix" values="0 0 0 0 0 0 0 0 0 0 0 0 0 0 0 0 0 0 127 0" result="hardAlpha"/>
<feOffset dy="4"/>
<feGaussianBlur stdDeviation="2"/>
<feComposite in2="hardAlpha" operator="arithmetic" k2="-1" k3="1"/>
<feColorMatrix type="matrix" values="0 0 0 0 0 0 0 0 0 0 0 0 0 0 0 0 0 0 0.25 0"/>
<feBlend mode="normal" in2="shape" result="effect1_innerShadow_23_6"/>
</filter>
<clipPath id="clip0_23_6">
<rect width="144" height="116" fill="white"/>
</clipPath>
</defs>
</svg>
